<svg width="562" height="352" viewBox="0 0 562 352" fill="none" xmlns="http://www.w3.org/2000/svg">
<rect x="0.5" y="0.5" width="561" height="351" rx="6.5" fill="white" stroke="#E5E5E5"/>
<path d="M24.3076 340H15.8877V338.778L19.3242 335.289C19.9629 334.645 20.499 334.07 20.9326 333.566C21.3721 333.062 21.7061 332.567 21.9346 332.081C22.1631 331.589 22.2773 331.05 22.2773 330.464C22.2773 329.737 22.0605 329.184 21.627 328.803C21.1992 328.416 20.6338 328.223 19.9307 328.223C19.3154 328.223 18.7705 328.328 18.2959 328.539C17.8213 328.75 17.335 329.049 16.8369 329.436L16.0547 328.451C16.3945 328.164 16.7637 327.909 17.1621 327.687C17.5664 327.464 17.9971 327.288 18.4541 327.159C18.917 327.03 19.4092 326.966 19.9307 326.966C20.7217 326.966 21.4043 327.104 21.9785 327.379C22.5527 327.654 22.9951 328.047 23.3057 328.557C23.6221 329.066 23.7803 329.673 23.7803 330.376C23.7803 331.056 23.6455 331.688 23.376 332.274C23.1064 332.854 22.7285 333.432 22.2422 334.006C21.7559 334.574 21.1875 335.178 20.5371 335.816L17.7422 338.603V338.664H24.3076V340ZM34.6787 333.558C34.6787 334.601 34.5996 335.532 34.4414 336.353C34.2832 337.173 34.0342 337.867 33.6943 338.436C33.3545 339.004 32.915 339.438 32.376 339.736C31.8369 340.029 31.1895 340.176 30.4336 340.176C29.4785 340.176 28.6875 339.915 28.0605 339.394C27.4395 338.872 26.9736 338.119 26.6631 337.135C26.3584 336.145 26.2061 334.952 26.2061 333.558C26.2061 332.187 26.3438 331.009 26.6191 330.024C26.9004 329.034 27.3516 328.275 27.9727 327.748C28.5938 327.215 29.4141 326.948 30.4336 326.948C31.4004 326.948 32.1973 327.212 32.8242 327.739C33.4512 328.261 33.917 329.017 34.2217 330.007C34.5264 330.991 34.6787 332.175 34.6787 333.558ZM27.6738 333.558C27.6738 334.753 27.7646 335.749 27.9463 336.546C28.1279 337.343 28.4209 337.94 28.8252 338.339C29.2354 338.731 29.7715 338.928 30.4336 338.928C31.0957 338.928 31.6289 338.731 32.0332 338.339C32.4434 337.946 32.7393 337.352 32.9209 336.555C33.1084 335.758 33.2021 334.759 33.2021 333.558C33.2021 332.38 33.1113 331.396 32.9297 330.604C32.748 329.808 32.4551 329.21 32.0508 328.812C31.6465 328.407 31.1074 328.205 30.4336 328.205C29.7598 328.205 29.2207 328.407 28.8164 328.812C28.4121 329.21 28.1191 329.808 27.9375 330.604C27.7617 331.396 27.6738 332.38 27.6738 333.558ZM44.9795 333.558C44.9795 334.601 44.9004 335.532 44.7422 336.353C44.584 337.173 44.335 337.867 43.9951 338.436C43.6553 339.004 43.2158 339.438 42.6768 339.736C42.1377 340.029 41.4902 340.176 40.7344 340.176C39.7793 340.176 38.9883 339.915 38.3613 339.394C37.7402 338.872 37.2744 338.119 36.9639 337.135C36.6592 336.145 36.5068 334.952 36.5068 333.558C36.5068 332.187 36.6445 331.009 36.9199 330.024C37.2012 329.034 37.6523 328.275 38.2734 327.748C38.8945 327.215 39.7148 326.948 40.7344 326.948C41.7012 326.948 42.498 327.212 43.125 327.739C43.752 328.261 44.2178 329.017 44.5225 330.007C44.8271 330.991 44.9795 332.175 44.9795 333.558ZM37.9746 333.558C37.9746 334.753 38.0654 335.749 38.2471 336.546C38.4287 337.343 38.7217 337.94 39.126 338.339C39.5361 338.731 40.0723 338.928 40.7344 338.928C41.3965 338.928 41.9297 338.731 42.334 338.339C42.7441 337.946 43.04 337.352 43.2217 336.555C43.4092 335.758 43.5029 334.759 43.5029 333.558C43.5029 332.38 43.4121 331.396 43.2305 330.604C43.0488 329.808 42.7559 329.21 42.3516 328.812C41.9473 328.407 41.4082 328.205 40.7344 328.205C40.0605 328.205 39.5215 328.407 39.1172 328.812C38.7129 329.21 38.4199 329.808 38.2383 330.604C38.0625 331.396 37.9746 332.38 37.9746 333.558ZM55.2803 333.558C55.2803 334.601 55.2012 335.532 55.043 336.353C54.8848 337.173 54.6357 337.867 54.2959 338.436C53.9561 339.004 53.5166 339.438 52.9775 339.736C52.4385 340.029 51.791 340.176 51.0352 340.176C50.0801 340.176 49.2891 339.915 48.6621 339.394C48.041 338.872 47.5752 338.119 47.2646 337.135C46.96 336.145 46.8076 334.952 46.8076 333.558C46.8076 332.187 46.9453 331.009 47.2207 330.024C47.502 329.034 47.9531 328.275 48.5742 327.748C49.1953 327.215 50.0156 326.948 51.0352 326.948C52.002 326.948 52.7988 327.212 53.4258 327.739C54.0527 328.261 54.5186 329.017 54.8232 330.007C55.1279 330.991 55.2803 332.175 55.2803 333.558ZM48.2754 333.558C48.2754 334.753 48.3662 335.749 48.5479 336.546C48.7295 337.343 49.0225 337.94 49.4268 338.339C49.8369 338.731 50.373 338.928 51.0352 338.928C51.6973 338.928 52.2305 338.731 52.6348 338.339C53.0449 337.946 53.3408 337.352 53.5225 336.555C53.71 335.758 53.8037 334.759 53.8037 333.558C53.8037 332.38 53.7129 331.396 53.5312 330.604C53.3496 329.808 53.0566 329.21 52.6523 328.812C52.248 328.407 51.709 328.205 51.0352 328.205C50.3613 328.205 49.8223 328.407 49.418 328.812C49.0137 329.21 48.7207 329.808 48.5391 330.604C48.3633 331.396 48.2754 332.38 48.2754 333.558Z" fill="#6D6D6D"/>
<path d="M70 333.5H550" stroke="#E5E5E5"/>
<path d="M70 271H550" stroke="#E5E5E5"/>
<path d="M70 238H550" stroke="#E5E5E5"/>
<path d="M70 303H550" stroke="#E5E5E5"/>
<path d="M70 205H550" stroke="#E5E5E5"/>
<path d="M70 141H550" stroke="#E5E5E5"/>
<path d="M70 173H550" stroke="#E5E5E5"/>
<path d="M70 109H550" stroke="#E5E5E5"/>
<path d="M70 77H550" stroke="#E5E5E5"/>
<path d="M70 45H550" stroke="#E5E5E5"/>
<path d="M24.9492 307.021H23.0244V310H21.6006V307.021H15.3867V305.79L21.5039 297.08H23.0244V305.702H24.9492V307.021ZM21.6006 305.702V301.501C21.6006 301.179 21.6035 300.889 21.6094 300.631C21.6152 300.367 21.624 300.124 21.6357 299.901C21.6475 299.673 21.6562 299.456 21.6621 299.251C21.6738 299.046 21.6826 298.844 21.6885 298.645H21.6182C21.5068 298.879 21.3779 299.128 21.2314 299.392C21.0908 299.649 20.9473 299.881 20.8008 300.086L16.8369 305.702H21.6006ZM34.6787 303.558C34.6787 304.601 34.5996 305.532 34.4414 306.353C34.2832 307.173 34.0342 307.867 33.6943 308.436C33.3545 309.004 32.915 309.438 32.376 309.736C31.8369 310.029 31.1895 310.176 30.4336 310.176C29.4785 310.176 28.6875 309.915 28.0605 309.394C27.4395 308.872 26.9736 308.119 26.6631 307.135C26.3584 306.145 26.2061 304.952 26.2061 303.558C26.2061 302.187 26.3438 301.009 26.6191 300.024C26.9004 299.034 27.3516 298.275 27.9727 297.748C28.5938 297.215 29.4141 296.948 30.4336 296.948C31.4004 296.948 32.1973 297.212 32.8242 297.739C33.4512 298.261 33.917 299.017 34.2217 300.007C34.5264 300.991 34.6787 302.175 34.6787 303.558ZM27.6738 303.558C27.6738 304.753 27.7646 305.749 27.9463 306.546C28.1279 307.343 28.4209 307.94 28.8252 308.339C29.2354 308.731 29.7715 308.928 30.4336 308.928C31.0957 308.928 31.6289 308.731 32.0332 308.339C32.4434 307.946 32.7393 307.352 32.9209 306.555C33.1084 305.758 33.2021 304.759 33.2021 303.558C33.2021 302.38 33.1113 301.396 32.9297 300.604C32.748 299.808 32.4551 299.21 32.0508 298.812C31.6465 298.407 31.1074 298.205 30.4336 298.205C29.7598 298.205 29.2207 298.407 28.8164 298.812C28.4121 299.21 28.1191 299.808 27.9375 300.604C27.7617 301.396 27.6738 302.38 27.6738 303.558ZM44.9795 303.558C44.9795 304.601 44.9004 305.532 44.7422 306.353C44.584 307.173 44.335 307.867 43.9951 308.436C43.6553 309.004 43.2158 309.438 42.6768 309.736C42.1377 310.029 41.4902 310.176 40.7344 310.176C39.7793 310.176 38.9883 309.915 38.3613 309.394C37.7402 308.872 37.2744 308.119 36.9639 307.135C36.6592 306.145 36.5068 304.952 36.5068 303.558C36.5068 302.187 36.6445 301.009 36.9199 300.024C37.2012 299.034 37.6523 298.275 38.2734 297.748C38.8945 297.215 39.7148 296.948 40.7344 296.948C41.7012 296.948 42.498 297.212 43.125 297.739C43.752 298.261 44.2178 299.017 44.5225 300.007C44.8271 300.991 44.9795 302.175 44.9795 303.558ZM37.9746 303.558C37.9746 304.753 38.0654 305.749 38.2471 306.546C38.4287 307.343 38.7217 307.94 39.126 308.339C39.5361 308.731 40.0723 308.928 40.7344 308.928C41.3965 308.928 41.9297 308.731 42.334 308.339C42.7441 307.946 43.04 307.352 43.2217 306.555C43.4092 305.758 43.5029 304.759 43.5029 303.558C43.5029 302.38 43.4121 301.396 43.2305 300.604C43.0488 299.808 42.7559 299.21 42.3516 298.812C41.9473 298.407 41.4082 298.205 40.7344 298.205C40.0605 298.205 39.5215 298.407 39.1172 298.812C38.7129 299.21 38.4199 299.808 38.2383 300.604C38.0625 301.396 37.9746 302.38 37.9746 303.558ZM55.2803 303.558C55.2803 304.601 55.2012 305.532 55.043 306.353C54.8848 307.173 54.6357 307.867 54.2959 308.436C53.9561 309.004 53.5166 309.438 52.9775 309.736C52.4385 310.029 51.791 310.176 51.0352 310.176C50.0801 310.176 49.2891 309.915 48.6621 309.394C48.041 308.872 47.5752 308.119 47.2646 307.135C46.96 306.145 46.8076 304.952 46.8076 303.558C46.8076 302.187 46.9453 301.009 47.2207 300.024C47.502 299.034 47.9531 298.275 48.5742 297.748C49.1953 297.215 50.0156 296.948 51.0352 296.948C52.002 296.948 52.7988 297.212 53.4258 297.739C54.0527 298.261 54.5186 299.017 54.8232 300.007C55.1279 300.991 55.2803 302.175 55.2803 303.558ZM48.2754 303.558C48.2754 304.753 48.3662 305.749 48.5479 306.546C48.7295 307.343 49.0225 307.94 49.4268 308.339C49.8369 308.731 50.373 308.928 51.0352 308.928C51.6973 308.928 52.2305 308.731 52.6348 308.339C53.0449 307.946 53.3408 307.352 53.5225 306.555C53.71 305.758 53.8037 304.759 53.8037 303.558C53.8037 302.38 53.7129 301.396 53.5312 300.604C53.3496 299.808 53.0566 299.21 52.6523 298.812C52.248 298.407 51.709 298.205 51.0352 298.205C50.3613 298.205 49.8223 298.407 49.418 298.812C49.0137 299.21 48.7207 299.808 48.5391 300.604C48.3633 301.396 48.2754 302.38 48.2754 303.558Z" fill="#6D6D6D"/>
<path d="M16.0195 272.507C16.0195 271.733 16.0723 270.978 16.1777 270.239C16.2891 269.501 16.4736 268.815 16.7314 268.183C16.9893 267.544 17.3408 266.984 17.7861 266.504C18.2314 266.023 18.7852 265.648 19.4473 265.379C20.1152 265.104 20.915 264.966 21.8467 264.966C22.1104 264.966 22.3945 264.98 22.6992 265.01C23.0039 265.033 23.2559 265.074 23.4551 265.133V266.39C23.2383 266.313 22.9893 266.258 22.708 266.223C22.4326 266.188 22.1543 266.17 21.873 266.17C20.7832 266.17 19.9248 266.407 19.2979 266.882C18.6768 267.356 18.2285 268.001 17.9531 268.815C17.6777 269.624 17.5195 270.535 17.4785 271.549H17.5752C17.7568 271.256 17.9883 270.992 18.2695 270.758C18.5508 270.518 18.8906 270.327 19.2891 270.187C19.6934 270.046 20.1621 269.976 20.6953 269.976C21.4453 269.976 22.0986 270.128 22.6553 270.433C23.2178 270.737 23.6514 271.18 23.9561 271.76C24.2666 272.34 24.4219 273.043 24.4219 273.869C24.4219 274.754 24.2578 275.519 23.9297 276.163C23.6016 276.808 23.1328 277.306 22.5234 277.657C21.9199 278.003 21.1992 278.176 20.3613 278.176C19.7344 278.176 19.1572 278.056 18.6299 277.815C18.1025 277.575 17.6426 277.218 17.25 276.743C16.8633 276.269 16.5615 275.68 16.3447 274.977C16.1279 274.268 16.0195 273.444 16.0195 272.507ZM20.3438 276.945C21.1406 276.945 21.7793 276.69 22.2598 276.181C22.7402 275.671 22.9805 274.9 22.9805 273.869C22.9805 273.025 22.7666 272.357 22.3389 271.865C21.9111 271.373 21.2666 271.127 20.4053 271.127C19.8193 271.127 19.3096 271.25 18.876 271.496C18.4424 271.736 18.1055 272.041 17.8652 272.41C17.625 272.779 17.5049 273.154 17.5049 273.535C17.5049 273.922 17.5605 274.314 17.6719 274.713C17.7891 275.111 17.9648 275.48 18.1992 275.82C18.4336 276.16 18.7295 276.433 19.0869 276.638C19.4443 276.843 19.8633 276.945 20.3438 276.945ZM34.6787 271.558C34.6787 272.601 34.5996 273.532 34.4414 274.353C34.2832 275.173 34.0342 275.867 33.6943 276.436C33.3545 277.004 32.915 277.438 32.376 277.736C31.8369 278.029 31.1895 278.176 30.4336 278.176C29.4785 278.176 28.6875 277.915 28.0605 277.394C27.4395 276.872 26.9736 276.119 26.6631 275.135C26.3584 274.145 26.2061 272.952 26.2061 271.558C26.2061 270.187 26.3438 269.009 26.6191 268.024C26.9004 267.034 27.3516 266.275 27.9727 265.748C28.5938 265.215 29.4141 264.948 30.4336 264.948C31.4004 264.948 32.1973 265.212 32.8242 265.739C33.4512 266.261 33.917 267.017 34.2217 268.007C34.5264 268.991 34.6787 270.175 34.6787 271.558ZM27.6738 271.558C27.6738 272.753 27.7646 273.749 27.9463 274.546C28.1279 275.343 28.4209 275.94 28.8252 276.339C29.2354 276.731 29.7715 276.928 30.4336 276.928C31.0957 276.928 31.6289 276.731 32.0332 276.339C32.4434 275.946 32.7393 275.352 32.9209 274.555C33.1084 273.758 33.2021 272.759 33.2021 271.558C33.2021 270.38 33.1113 269.396 32.9297 268.604C32.748 267.808 32.4551 267.21 32.0508 266.812C31.6465 266.407 31.1074 266.205 30.4336 266.205C29.7598 266.205 29.2207 266.407 28.8164 266.812C28.4121 267.21 28.1191 267.808 27.9375 268.604C27.7617 269.396 27.6738 270.38 27.6738 271.558ZM44.9795 271.558C44.9795 272.601 44.9004 273.532 44.7422 274.353C44.584 275.173 44.335 275.867 43.9951 276.436C43.6553 277.004 43.2158 277.438 42.6768 277.736C42.1377 278.029 41.4902 278.176 40.7344 278.176C39.7793 278.176 38.9883 277.915 38.3613 277.394C37.7402 276.872 37.2744 276.119 36.9639 275.135C36.6592 274.145 36.5068 272.952 36.5068 271.558C36.5068 270.187 36.6445 269.009 36.9199 268.024C37.2012 267.034 37.6523 266.275 38.2734 265.748C38.8945 265.215 39.7148 264.948 40.7344 264.948C41.7012 264.948 42.498 265.212 43.125 265.739C43.752 266.261 44.2178 267.017 44.5225 268.007C44.8271 268.991 44.9795 270.175 44.9795 271.558ZM37.9746 271.558C37.9746 272.753 38.0654 273.749 38.2471 274.546C38.4287 275.343 38.7217 275.94 39.126 276.339C39.5361 276.731 40.0723 276.928 40.7344 276.928C41.3965 276.928 41.9297 276.731 42.334 276.339C42.7441 275.946 43.04 275.352 43.2217 274.555C43.4092 273.758 43.5029 272.759 43.5029 271.558C43.5029 270.38 43.4121 269.396 43.2305 268.604C43.0488 267.808 42.7559 267.21 42.3516 266.812C41.9473 266.407 41.4082 266.205 40.7344 266.205C40.0605 266.205 39.5215 266.407 39.1172 266.812C38.7129 267.21 38.4199 267.808 38.2383 268.604C38.0625 269.396 37.9746 270.38 37.9746 271.558ZM55.2803 271.558C55.2803 272.601 55.2012 273.532 55.043 274.353C54.8848 275.173 54.6357 275.867 54.2959 276.436C53.9561 277.004 53.5166 277.438 52.9775 277.736C52.4385 278.029 51.791 278.176 51.0352 278.176C50.0801 278.176 49.2891 277.915 48.6621 277.394C48.041 276.872 47.5752 276.119 47.2646 275.135C46.96 274.145 46.8076 272.952 46.8076 271.558C46.8076 270.187 46.9453 269.009 47.2207 268.024C47.502 267.034 47.9531 266.275 48.5742 265.748C49.1953 265.215 50.0156 264.948 51.0352 264.948C52.002 264.948 52.7988 265.212 53.4258 265.739C54.0527 266.261 54.5186 267.017 54.8232 268.007C55.1279 268.991 55.2803 270.175 55.2803 271.558ZM48.2754 271.558C48.2754 272.753 48.3662 273.749 48.5479 274.546C48.7295 275.343 49.0225 275.94 49.4268 276.339C49.8369 276.731 50.373 276.928 51.0352 276.928C51.6973 276.928 52.2305 276.731 52.6348 276.339C53.0449 275.946 53.3408 275.352 53.5225 274.555C53.71 273.758 53.8037 272.759 53.8037 271.558C53.8037 270.38 53.7129 269.396 53.5312 268.604C53.3496 267.808 53.0566 267.21 52.6523 266.812C52.248 266.407 51.709 266.205 51.0352 266.205C50.3613 266.205 49.8223 266.407 49.418 266.812C49.0137 267.21 48.7207 267.808 48.5391 268.604C48.3633 269.396 48.2754 270.38 48.2754 271.558Z" fill="#6D6D6D"/>
<path d="M20.1328 231.966C20.877 231.966 21.5361 232.083 22.1104 232.317C22.6846 232.552 23.1328 232.897 23.4551 233.354C23.7832 233.806 23.9473 234.362 23.9473 235.024C23.9473 235.546 23.833 236.003 23.6045 236.396C23.3818 236.782 23.0801 237.122 22.6992 237.415C22.3184 237.702 21.8965 237.96 21.4336 238.188C21.9844 238.44 22.4795 238.725 22.9189 239.041C23.3643 239.357 23.7158 239.729 23.9736 240.157C24.2314 240.585 24.3604 241.092 24.3604 241.678C24.3604 242.398 24.1846 243.022 23.833 243.55C23.4873 244.071 23.001 244.473 22.374 244.754C21.7471 245.035 21.0117 245.176 20.168 245.176C19.2598 245.176 18.4863 245.041 17.8477 244.771C17.2148 244.496 16.7314 244.104 16.3975 243.594C16.0693 243.078 15.9053 242.46 15.9053 241.739C15.9053 241.147 16.0312 240.635 16.2832 240.201C16.5352 239.762 16.8691 239.384 17.2852 239.067C17.7012 238.751 18.1553 238.484 18.6475 238.268C18.2197 238.033 17.8271 237.767 17.4697 237.468C17.1182 237.169 16.8369 236.82 16.626 236.422C16.4209 236.018 16.3184 235.549 16.3184 235.016C16.3184 234.365 16.4824 233.814 16.8105 233.363C17.1445 232.906 17.5986 232.561 18.1729 232.326C18.7529 232.086 19.4062 231.966 20.1328 231.966ZM17.3379 241.748C17.3379 242.404 17.5693 242.946 18.0322 243.374C18.4951 243.796 19.1953 244.007 20.1328 244.007C21.0234 244.007 21.7119 243.796 22.1982 243.374C22.6846 242.946 22.9277 242.387 22.9277 241.695C22.9277 241.268 22.8164 240.893 22.5938 240.57C22.3711 240.242 22.0547 239.949 21.6445 239.691C21.2344 239.434 20.751 239.199 20.1943 238.988L19.8779 238.874C19.3389 239.097 18.8789 239.346 18.498 239.621C18.123 239.891 17.8359 240.198 17.6367 240.544C17.4375 240.89 17.3379 241.291 17.3379 241.748ZM20.1152 233.161C19.4238 233.161 18.8584 233.328 18.4189 233.662C17.9795 233.99 17.7598 234.465 17.7598 235.086C17.7598 235.531 17.8652 235.909 18.0762 236.22C18.293 236.524 18.5859 236.788 18.9551 237.011C19.3242 237.228 19.7373 237.43 20.1943 237.617C20.6396 237.43 21.0352 237.225 21.3809 237.002C21.7266 236.773 21.999 236.504 22.1982 236.193C22.3975 235.883 22.4971 235.511 22.4971 235.077C22.4971 234.456 22.2773 233.981 21.8379 233.653C21.4043 233.325 20.8301 233.161 20.1152 233.161ZM34.6787 238.558C34.6787 239.601 34.5996 240.532 34.4414 241.353C34.2832 242.173 34.0342 242.867 33.6943 243.436C33.3545 244.004 32.915 244.438 32.376 244.736C31.8369 245.029 31.1895 245.176 30.4336 245.176C29.4785 245.176 28.6875 244.915 28.0605 244.394C27.4395 243.872 26.9736 243.119 26.6631 242.135C26.3584 241.145 26.2061 239.952 26.2061 238.558C26.2061 237.187 26.3438 236.009 26.6191 235.024C26.9004 234.034 27.3516 233.275 27.9727 232.748C28.5938 232.215 29.4141 231.948 30.4336 231.948C31.4004 231.948 32.1973 232.212 32.8242 232.739C33.4512 233.261 33.917 234.017 34.2217 235.007C34.5264 235.991 34.6787 237.175 34.6787 238.558ZM27.6738 238.558C27.6738 239.753 27.7646 240.749 27.9463 241.546C28.1279 242.343 28.4209 242.94 28.8252 243.339C29.2354 243.731 29.7715 243.928 30.4336 243.928C31.0957 243.928 31.6289 243.731 32.0332 243.339C32.4434 242.946 32.7393 242.352 32.9209 241.555C33.1084 240.758 33.2021 239.759 33.2021 238.558C33.2021 237.38 33.1113 236.396 32.9297 235.604C32.748 234.808 32.4551 234.21 32.0508 233.812C31.6465 233.407 31.1074 233.205 30.4336 233.205C29.7598 233.205 29.2207 233.407 28.8164 233.812C28.4121 234.21 28.1191 234.808 27.9375 235.604C27.7617 236.396 27.6738 237.38 27.6738 238.558ZM44.9795 238.558C44.9795 239.601 44.9004 240.532 44.7422 241.353C44.584 242.173 44.335 242.867 43.9951 243.436C43.6553 244.004 43.2158 244.438 42.6768 244.736C42.1377 245.029 41.4902 245.176 40.7344 245.176C39.7793 245.176 38.9883 244.915 38.3613 244.394C37.7402 243.872 37.2744 243.119 36.9639 242.135C36.6592 241.145 36.5068 239.952 36.5068 238.558C36.5068 237.187 36.6445 236.009 36.9199 235.024C37.2012 234.034 37.6523 233.275 38.2734 232.748C38.8945 232.215 39.7148 231.948 40.7344 231.948C41.7012 231.948 42.498 232.212 43.125 232.739C43.752 233.261 44.2178 234.017 44.5225 235.007C44.8271 235.991 44.9795 237.175 44.9795 238.558ZM37.9746 238.558C37.9746 239.753 38.0654 240.749 38.2471 241.546C38.4287 242.343 38.7217 242.94 39.126 243.339C39.5361 243.731 40.0723 243.928 40.7344 243.928C41.3965 243.928 41.9297 243.731 42.334 243.339C42.7441 242.946 43.04 242.352 43.2217 241.555C43.4092 240.758 43.5029 239.759 43.5029 238.558C43.5029 237.38 43.4121 236.396 43.2305 235.604C43.0488 234.808 42.7559 234.21 42.3516 233.812C41.9473 233.407 41.4082 233.205 40.7344 233.205C40.0605 233.205 39.5215 233.407 39.1172 233.812C38.7129 234.21 38.4199 234.808 38.2383 235.604C38.0625 236.396 37.9746 237.38 37.9746 238.558ZM55.2803 238.558C55.2803 239.601 55.2012 240.532 55.043 241.353C54.8848 242.173 54.6357 242.867 54.2959 243.436C53.9561 244.004 53.5166 244.438 52.9775 244.736C52.4385 245.029 51.791 245.176 51.0352 245.176C50.0801 245.176 49.2891 244.915 48.6621 244.394C48.041 243.872 47.5752 243.119 47.2646 242.135C46.96 241.145 46.8076 239.952 46.8076 238.558C46.8076 237.187 46.9453 236.009 47.2207 235.024C47.502 234.034 47.9531 233.275 48.5742 232.748C49.1953 232.215 50.0156 231.948 51.0352 231.948C52.002 231.948 52.7988 232.212 53.4258 232.739C54.0527 233.261 54.5186 234.017 54.8232 235.007C55.1279 235.991 55.2803 237.175 55.2803 238.558ZM48.2754 238.558C48.2754 239.753 48.3662 240.749 48.5479 241.546C48.7295 242.343 49.0225 242.94 49.4268 243.339C49.8369 243.731 50.373 243.928 51.0352 243.928C51.6973 243.928 52.2305 243.731 52.6348 243.339C53.0449 242.946 53.3408 242.352 53.5225 241.555C53.71 240.758 53.8037 239.759 53.8037 238.558C53.8037 237.38 53.7129 236.396 53.5312 235.604C53.3496 234.808 53.0566 234.21 52.6523 233.812C52.248 233.407 51.709 233.205 51.0352 233.205C50.3613 233.205 49.8223 233.407 49.418 233.812C49.0137 234.21 48.7207 234.808 48.5391 235.604C48.3633 236.396 48.2754 237.38 48.2754 238.558Z" fill="#6D6D6D"/>
<path d="M11.3193 212H9.89551V202.895C9.89551 202.549 9.89551 202.253 9.89551 202.007C9.90137 201.755 9.90723 201.526 9.91309 201.321C9.9248 201.11 9.93945 200.896 9.95703 200.68C9.77539 200.867 9.60547 201.028 9.44727 201.163C9.28906 201.292 9.09277 201.453 8.8584 201.646L7.39062 202.824L6.62598 201.831L10.1064 199.15H11.3193V212ZM24.6787 205.558C24.6787 206.601 24.5996 207.532 24.4414 208.353C24.2832 209.173 24.0342 209.867 23.6943 210.436C23.3545 211.004 22.915 211.438 22.376 211.736C21.8369 212.029 21.1895 212.176 20.4336 212.176C19.4785 212.176 18.6875 211.915 18.0605 211.394C17.4395 210.872 16.9736 210.119 16.6631 209.135C16.3584 208.145 16.2061 206.952 16.2061 205.558C16.2061 204.187 16.3438 203.009 16.6191 202.024C16.9004 201.034 17.3516 200.275 17.9727 199.748C18.5938 199.215 19.4141 198.948 20.4336 198.948C21.4004 198.948 22.1973 199.212 22.8242 199.739C23.4512 200.261 23.917 201.017 24.2217 202.007C24.5264 202.991 24.6787 204.175 24.6787 205.558ZM17.6738 205.558C17.6738 206.753 17.7646 207.749 17.9463 208.546C18.1279 209.343 18.4209 209.94 18.8252 210.339C19.2354 210.731 19.7715 210.928 20.4336 210.928C21.0957 210.928 21.6289 210.731 22.0332 210.339C22.4434 209.946 22.7393 209.352 22.9209 208.555C23.1084 207.758 23.2021 206.759 23.2021 205.558C23.2021 204.38 23.1113 203.396 22.9297 202.604C22.748 201.808 22.4551 201.21 22.0508 200.812C21.6465 200.407 21.1074 200.205 20.4336 200.205C19.7598 200.205 19.2207 200.407 18.8164 200.812C18.4121 201.21 18.1191 201.808 17.9375 202.604C17.7617 203.396 17.6738 204.38 17.6738 205.558ZM34.9795 205.558C34.9795 206.601 34.9004 207.532 34.7422 208.353C34.584 209.173 34.335 209.867 33.9951 210.436C33.6553 211.004 33.2158 211.438 32.6768 211.736C32.1377 212.029 31.4902 212.176 30.7344 212.176C29.7793 212.176 28.9883 211.915 28.3613 211.394C27.7402 210.872 27.2744 210.119 26.9639 209.135C26.6592 208.145 26.5068 206.952 26.5068 205.558C26.5068 204.187 26.6445 203.009 26.9199 202.024C27.2012 201.034 27.6523 200.275 28.2734 199.748C28.8945 199.215 29.7148 198.948 30.7344 198.948C31.7012 198.948 32.498 199.212 33.125 199.739C33.752 200.261 34.2178 201.017 34.5225 202.007C34.8271 202.991 34.9795 204.175 34.9795 205.558ZM27.9746 205.558C27.9746 206.753 28.0654 207.749 28.2471 208.546C28.4287 209.343 28.7217 209.94 29.126 210.339C29.5361 210.731 30.0723 210.928 30.7344 210.928C31.3965 210.928 31.9297 210.731 32.334 210.339C32.7441 209.946 33.04 209.352 33.2217 208.555C33.4092 207.758 33.5029 206.759 33.5029 205.558C33.5029 204.38 33.4121 203.396 33.2305 202.604C33.0488 201.808 32.7559 201.21 32.3516 200.812C31.9473 200.407 31.4082 200.205 30.7344 200.205C30.0605 200.205 29.5215 200.407 29.1172 200.812C28.7129 201.21 28.4199 201.808 28.2383 202.604C28.0625 203.396 27.9746 204.38 27.9746 205.558ZM45.2803 205.558C45.2803 206.601 45.2012 207.532 45.043 208.353C44.8848 209.173 44.6357 209.867 44.2959 210.436C43.9561 211.004 43.5166 211.438 42.9775 211.736C42.4385 212.029 41.791 212.176 41.0352 212.176C40.0801 212.176 39.2891 211.915 38.6621 211.394C38.041 210.872 37.5752 210.119 37.2646 209.135C36.96 208.145 36.8076 206.952 36.8076 205.558C36.8076 204.187 36.9453 203.009 37.2207 202.024C37.502 201.034 37.9531 200.275 38.5742 199.748C39.1953 199.215 40.0156 198.948 41.0352 198.948C42.002 198.948 42.7988 199.212 43.4258 199.739C44.0527 200.261 44.5186 201.017 44.8232 202.007C45.1279 202.991 45.2803 204.175 45.2803 205.558ZM38.2754 205.558C38.2754 206.753 38.3662 207.749 38.5479 208.546C38.7295 209.343 39.0225 209.94 39.4268 210.339C39.8369 210.731 40.373 210.928 41.0352 210.928C41.6973 210.928 42.2305 210.731 42.6348 210.339C43.0449 209.946 43.3408 209.352 43.5225 208.555C43.71 207.758 43.8037 206.759 43.8037 205.558C43.8037 204.38 43.7129 203.396 43.5312 202.604C43.3496 201.808 43.0566 201.21 42.6523 200.812C42.248 200.407 41.709 200.205 41.0352 200.205C40.3613 200.205 39.8223 200.407 39.418 200.812C39.0137 201.21 38.7207 201.808 38.5391 202.604C38.3633 203.396 38.2754 204.38 38.2754 205.558ZM55.5811 205.558C55.5811 206.601 55.502 207.532 55.3438 208.353C55.1855 209.173 54.9365 209.867 54.5967 210.436C54.2568 211.004 53.8174 211.438 53.2783 211.736C52.7393 212.029 52.0918 212.176 51.3359 212.176C50.3809 212.176 49.5898 211.915 48.9629 211.394C48.3418 210.872 47.876 210.119 47.5654 209.135C47.2607 208.145 47.1084 206.952 47.1084 205.558C47.1084 204.187 47.2461 203.009 47.5215 202.024C47.8027 201.034 48.2539 200.275 48.875 199.748C49.4961 199.215 50.3164 198.948 51.3359 198.948C52.3027 198.948 53.0996 199.212 53.7266 199.739C54.3535 200.261 54.8193 201.017 55.124 202.007C55.4287 202.991 55.5811 204.175 55.5811 205.558ZM48.5762 205.558C48.5762 206.753 48.667 207.749 48.8486 208.546C49.0303 209.343 49.3232 209.94 49.7275 210.339C50.1377 210.731 50.6738 210.928 51.3359 210.928C51.998 210.928 52.5312 210.731 52.9355 210.339C53.3457 209.946 53.6416 209.352 53.8232 208.555C54.0107 207.758 54.1045 206.759 54.1045 205.558C54.1045 204.38 54.0137 203.396 53.832 202.604C53.6504 201.808 53.3574 201.21 52.9531 200.812C52.5488 200.407 52.0098 200.205 51.3359 200.205C50.6621 200.205 50.123 200.407 49.7188 200.812C49.3145 201.21 49.0215 201.808 48.8398 202.604C48.6641 203.396 48.5762 204.38 48.5762 205.558Z" fill="#6D6D6D"/>
<path d="M11.3193 180H9.89551V170.895C9.89551 170.549 9.89551 170.253 9.89551 170.007C9.90137 169.755 9.90723 169.526 9.91309 169.321C9.9248 169.11 9.93945 168.896 9.95703 168.68C9.77539 168.867 9.60547 169.028 9.44727 169.163C9.28906 169.292 9.09277 169.453 8.8584 169.646L7.39062 170.824L6.62598 169.831L10.1064 167.15H11.3193V180ZM24.6084 180H16.1885V178.778L19.625 175.289C20.2637 174.645 20.7998 174.07 21.2334 173.566C21.6729 173.062 22.0068 172.567 22.2354 172.081C22.4639 171.589 22.5781 171.05 22.5781 170.464C22.5781 169.737 22.3613 169.184 21.9277 168.803C21.5 168.416 20.9346 168.223 20.2314 168.223C19.6162 168.223 19.0713 168.328 18.5967 168.539C18.1221 168.75 17.6357 169.049 17.1377 169.436L16.3555 168.451C16.6953 168.164 17.0645 167.909 17.4629 167.687C17.8672 167.464 18.2979 167.288 18.7549 167.159C19.2178 167.03 19.71 166.966 20.2314 166.966C21.0225 166.966 21.7051 167.104 22.2793 167.379C22.8535 167.654 23.2959 168.047 23.6064 168.557C23.9229 169.066 24.0811 169.673 24.0811 170.376C24.0811 171.056 23.9463 171.688 23.6768 172.274C23.4072 172.854 23.0293 173.432 22.543 174.006C22.0566 174.574 21.4883 175.178 20.8379 175.816L18.043 178.603V178.664H24.6084V180ZM34.9795 173.558C34.9795 174.601 34.9004 175.532 34.7422 176.353C34.584 177.173 34.335 177.867 33.9951 178.436C33.6553 179.004 33.2158 179.438 32.6768 179.736C32.1377 180.029 31.4902 180.176 30.7344 180.176C29.7793 180.176 28.9883 179.915 28.3613 179.394C27.7402 178.872 27.2744 178.119 26.9639 177.135C26.6592 176.145 26.5068 174.952 26.5068 173.558C26.5068 172.187 26.6445 171.009 26.9199 170.024C27.2012 169.034 27.6523 168.275 28.2734 167.748C28.8945 167.215 29.7148 166.948 30.7344 166.948C31.7012 166.948 32.498 167.212 33.125 167.739C33.752 168.261 34.2178 169.017 34.5225 170.007C34.8271 170.991 34.9795 172.175 34.9795 173.558ZM27.9746 173.558C27.9746 174.753 28.0654 175.749 28.2471 176.546C28.4287 177.343 28.7217 177.94 29.126 178.339C29.5361 178.731 30.0723 178.928 30.7344 178.928C31.3965 178.928 31.9297 178.731 32.334 178.339C32.7441 177.946 33.04 177.352 33.2217 176.555C33.4092 175.758 33.5029 174.759 33.5029 173.558C33.5029 172.38 33.4121 171.396 33.2305 170.604C33.0488 169.808 32.7559 169.21 32.3516 168.812C31.9473 168.407 31.4082 168.205 30.7344 168.205C30.0605 168.205 29.5215 168.407 29.1172 168.812C28.7129 169.21 28.4199 169.808 28.2383 170.604C28.0625 171.396 27.9746 172.38 27.9746 173.558ZM45.2803 173.558C45.2803 174.601 45.2012 175.532 45.043 176.353C44.8848 177.173 44.6357 177.867 44.2959 178.436C43.9561 179.004 43.5166 179.438 42.9775 179.736C42.4385 180.029 41.791 180.176 41.0352 180.176C40.0801 180.176 39.2891 179.915 38.6621 179.394C38.041 178.872 37.5752 178.119 37.2646 177.135C36.96 176.145 36.8076 174.952 36.8076 173.558C36.8076 172.187 36.9453 171.009 37.2207 170.024C37.502 169.034 37.9531 168.275 38.5742 167.748C39.1953 167.215 40.0156 166.948 41.0352 166.948C42.002 166.948 42.7988 167.212 43.4258 167.739C44.0527 168.261 44.5186 169.017 44.8232 170.007C45.1279 170.991 45.2803 172.175 45.2803 173.558ZM38.2754 173.558C38.2754 174.753 38.3662 175.749 38.5479 176.546C38.7295 177.343 39.0225 177.94 39.4268 178.339C39.8369 178.731 40.373 178.928 41.0352 178.928C41.6973 178.928 42.2305 178.731 42.6348 178.339C43.0449 177.946 43.3408 177.352 43.5225 176.555C43.71 175.758 43.8037 174.759 43.8037 173.558C43.8037 172.38 43.7129 171.396 43.5312 170.604C43.3496 169.808 43.0566 169.21 42.6523 168.812C42.248 168.407 41.709 168.205 41.0352 168.205C40.3613 168.205 39.8223 168.407 39.418 168.812C39.0137 169.21 38.7207 169.808 38.5391 170.604C38.3633 171.396 38.2754 172.38 38.2754 173.558ZM55.5811 173.558C55.5811 174.601 55.502 175.532 55.3438 176.353C55.1855 177.173 54.9365 177.867 54.5967 178.436C54.2568 179.004 53.8174 179.438 53.2783 179.736C52.7393 180.029 52.0918 180.176 51.3359 180.176C50.3809 180.176 49.5898 179.915 48.9629 179.394C48.3418 178.872 47.876 178.119 47.5654 177.135C47.2607 176.145 47.1084 174.952 47.1084 173.558C47.1084 172.187 47.2461 171.009 47.5215 170.024C47.8027 169.034 48.2539 168.275 48.875 167.748C49.4961 167.215 50.3164 166.948 51.3359 166.948C52.3027 166.948 53.0996 167.212 53.7266 167.739C54.3535 168.261 54.8193 169.017 55.124 170.007C55.4287 170.991 55.5811 172.175 55.5811 173.558ZM48.5762 173.558C48.5762 174.753 48.667 175.749 48.8486 176.546C49.0303 177.343 49.3232 177.94 49.7275 178.339C50.1377 178.731 50.6738 178.928 51.3359 178.928C51.998 178.928 52.5312 178.731 52.9355 178.339C53.3457 177.946 53.6416 177.352 53.8232 176.555C54.0107 175.758 54.1045 174.759 54.1045 173.558C54.1045 172.38 54.0137 171.396 53.832 170.604C53.6504 169.808 53.3574 169.21 52.9531 168.812C52.5488 168.407 52.0098 168.205 51.3359 168.205C50.6621 168.205 50.123 168.407 49.7188 168.812C49.3145 169.21 49.0215 169.808 48.8398 170.604C48.6641 171.396 48.5762 172.38 48.5762 173.558Z" fill="#6D6D6D"/>
<path d="M11.3193 148H9.89551V138.895C9.89551 138.549 9.89551 138.253 9.89551 138.007C9.90137 137.755 9.90723 137.526 9.91309 137.321C9.9248 137.11 9.93945 136.896 9.95703 136.68C9.77539 136.867 9.60547 137.028 9.44727 137.163C9.28906 137.292 9.09277 137.453 8.8584 137.646L7.39062 138.824L6.62598 137.831L10.1064 135.15H11.3193V148ZM25.25 145.021H23.3252V148H21.9014V145.021H15.6875V143.79L21.8047 135.08H23.3252V143.702H25.25V145.021ZM21.9014 143.702V139.501C21.9014 139.179 21.9043 138.889 21.9102 138.631C21.916 138.367 21.9248 138.124 21.9365 137.901C21.9482 137.673 21.957 137.456 21.9629 137.251C21.9746 137.046 21.9834 136.844 21.9893 136.645H21.9189C21.8076 136.879 21.6787 137.128 21.5322 137.392C21.3916 137.649 21.248 137.881 21.1016 138.086L17.1377 143.702H21.9014ZM34.9795 141.558C34.9795 142.601 34.9004 143.532 34.7422 144.353C34.584 145.173 34.335 145.867 33.9951 146.436C33.6553 147.004 33.2158 147.438 32.6768 147.736C32.1377 148.029 31.4902 148.176 30.7344 148.176C29.7793 148.176 28.9883 147.915 28.3613 147.394C27.7402 146.872 27.2744 146.119 26.9639 145.135C26.6592 144.145 26.5068 142.952 26.5068 141.558C26.5068 140.187 26.6445 139.009 26.9199 138.024C27.2012 137.034 27.6523 136.275 28.2734 135.748C28.8945 135.215 29.7148 134.948 30.7344 134.948C31.7012 134.948 32.498 135.212 33.125 135.739C33.752 136.261 34.2178 137.017 34.5225 138.007C34.8271 138.991 34.9795 140.175 34.9795 141.558ZM27.9746 141.558C27.9746 142.753 28.0654 143.749 28.2471 144.546C28.4287 145.343 28.7217 145.94 29.126 146.339C29.5361 146.731 30.0723 146.928 30.7344 146.928C31.3965 146.928 31.9297 146.731 32.334 146.339C32.7441 145.946 33.04 145.352 33.2217 144.555C33.4092 143.758 33.5029 142.759 33.5029 141.558C33.5029 140.38 33.4121 139.396 33.2305 138.604C33.0488 137.808 32.7559 137.21 32.3516 136.812C31.9473 136.407 31.4082 136.205 30.7344 136.205C30.0605 136.205 29.5215 136.407 29.1172 136.812C28.7129 137.21 28.4199 137.808 28.2383 138.604C28.0625 139.396 27.9746 140.38 27.9746 141.558ZM45.2803 141.558C45.2803 142.601 45.2012 143.532 45.043 144.353C44.8848 145.173 44.6357 145.867 44.2959 146.436C43.9561 147.004 43.5166 147.438 42.9775 147.736C42.4385 148.029 41.791 148.176 41.0352 148.176C40.0801 148.176 39.2891 147.915 38.6621 147.394C38.041 146.872 37.5752 146.119 37.2646 145.135C36.96 144.145 36.8076 142.952 36.8076 141.558C36.8076 140.187 36.9453 139.009 37.2207 138.024C37.502 137.034 37.9531 136.275 38.5742 135.748C39.1953 135.215 40.0156 134.948 41.0352 134.948C42.002 134.948 42.7988 135.212 43.4258 135.739C44.0527 136.261 44.5186 137.017 44.8232 138.007C45.1279 138.991 45.2803 140.175 45.2803 141.558ZM38.2754 141.558C38.2754 142.753 38.3662 143.749 38.5479 144.546C38.7295 145.343 39.0225 145.94 39.4268 146.339C39.8369 146.731 40.373 146.928 41.0352 146.928C41.6973 146.928 42.2305 146.731 42.6348 146.339C43.0449 145.946 43.3408 145.352 43.5225 144.555C43.71 143.758 43.8037 142.759 43.8037 141.558C43.8037 140.38 43.7129 139.396 43.5312 138.604C43.3496 137.808 43.0566 137.21 42.6523 136.812C42.248 136.407 41.709 136.205 41.0352 136.205C40.3613 136.205 39.8223 136.407 39.418 136.812C39.0137 137.21 38.7207 137.808 38.5391 138.604C38.3633 139.396 38.2754 140.38 38.2754 141.558ZM55.5811 141.558C55.5811 142.601 55.502 143.532 55.3438 144.353C55.1855 145.173 54.9365 145.867 54.5967 146.436C54.2568 147.004 53.8174 147.438 53.2783 147.736C52.7393 148.029 52.0918 148.176 51.3359 148.176C50.3809 148.176 49.5898 147.915 48.9629 147.394C48.3418 146.872 47.876 146.119 47.5654 145.135C47.2607 144.145 47.1084 142.952 47.1084 141.558C47.1084 140.187 47.2461 139.009 47.5215 138.024C47.8027 137.034 48.2539 136.275 48.875 135.748C49.4961 135.215 50.3164 134.948 51.3359 134.948C52.3027 134.948 53.0996 135.212 53.7266 135.739C54.3535 136.261 54.8193 137.017 55.124 138.007C55.4287 138.991 55.5811 140.175 55.5811 141.558ZM48.5762 141.558C48.5762 142.753 48.667 143.749 48.8486 144.546C49.0303 145.343 49.3232 145.94 49.7275 146.339C50.1377 146.731 50.6738 146.928 51.3359 146.928C51.998 146.928 52.5312 146.731 52.9355 146.339C53.3457 145.946 53.6416 145.352 53.8232 144.555C54.0107 143.758 54.1045 142.759 54.1045 141.558C54.1045 140.38 54.0137 139.396 53.832 138.604C53.6504 137.808 53.3574 137.21 52.9531 136.812C52.5488 136.407 52.0098 136.205 51.3359 136.205C50.6621 136.205 50.123 136.407 49.7188 136.812C49.3145 137.21 49.0215 137.808 48.8398 138.604C48.6641 139.396 48.5762 140.38 48.5762 141.558Z" fill="#6D6D6D"/>
<path d="M11.3193 84H9.89551V74.8945C9.89551 74.5488 9.89551 74.2529 9.89551 74.0068C9.90137 73.7549 9.90723 73.5264 9.91309 73.3213C9.9248 73.1104 9.93945 72.8965 9.95703 72.6797C9.77539 72.8672 9.60547 73.0283 9.44727 73.1631C9.28906 73.292 9.09277 73.4531 8.8584 73.6465L7.39062 74.8242L6.62598 73.8311L10.1064 71.1504H11.3193V84ZM20.4336 70.9658C21.1777 70.9658 21.8369 71.083 22.4111 71.3174C22.9854 71.5518 23.4336 71.8975 23.7559 72.3545C24.084 72.8057 24.248 73.3623 24.248 74.0244C24.248 74.5459 24.1338 75.0029 23.9053 75.3955C23.6826 75.7822 23.3809 76.1221 23 76.415C22.6191 76.7021 22.1973 76.96 21.7344 77.1885C22.2852 77.4404 22.7803 77.7246 23.2197 78.041C23.665 78.3574 24.0166 78.7295 24.2744 79.1572C24.5322 79.585 24.6611 80.0918 24.6611 80.6777C24.6611 81.3984 24.4854 82.0225 24.1338 82.5498C23.7881 83.0713 23.3018 83.4727 22.6748 83.7539C22.0479 84.0352 21.3125 84.1758 20.4688 84.1758C19.5605 84.1758 18.7871 84.041 18.1484 83.7715C17.5156 83.4961 17.0322 83.1035 16.6982 82.5938C16.3701 82.0781 16.2061 81.46 16.2061 80.7393C16.2061 80.1475 16.332 79.6348 16.584 79.2012C16.8359 78.7617 17.1699 78.3838 17.5859 78.0674C18.002 77.751 18.4561 77.4844 18.9482 77.2676C18.5205 77.0332 18.1279 76.7666 17.7705 76.4678C17.4189 76.1689 17.1377 75.8203 16.9268 75.4219C16.7217 75.0176 16.6191 74.5488 16.6191 74.0156C16.6191 73.3652 16.7832 72.8145 17.1113 72.3633C17.4453 71.9062 17.8994 71.5605 18.4736 71.3262C19.0537 71.0859 19.707 70.9658 20.4336 70.9658ZM17.6387 80.748C17.6387 81.4043 17.8701 81.9463 18.333 82.374C18.7959 82.7959 19.4961 83.0068 20.4336 83.0068C21.3242 83.0068 22.0127 82.7959 22.499 82.374C22.9854 81.9463 23.2285 81.3867 23.2285 80.6953C23.2285 80.2676 23.1172 79.8926 22.8945 79.5703C22.6719 79.2422 22.3555 78.9492 21.9453 78.6914C21.5352 78.4336 21.0518 78.1992 20.4951 77.9883L20.1787 77.874C19.6396 78.0967 19.1797 78.3457 18.7988 78.6211C18.4238 78.8906 18.1367 79.1982 17.9375 79.5439C17.7383 79.8896 17.6387 80.291 17.6387 80.748ZM20.416 72.1611C19.7246 72.1611 19.1592 72.3281 18.7197 72.6621C18.2803 72.9902 18.0605 73.4648 18.0605 74.0859C18.0605 74.5312 18.166 74.9092 18.377 75.2197C18.5938 75.5244 18.8867 75.7881 19.2559 76.0107C19.625 76.2275 20.0381 76.4297 20.4951 76.6172C20.9404 76.4297 21.3359 76.2246 21.6816 76.002C22.0273 75.7734 22.2998 75.5039 22.499 75.1934C22.6982 74.8828 22.7979 74.5107 22.7979 74.0771C22.7979 73.4561 22.5781 72.9814 22.1387 72.6533C21.7051 72.3252 21.1309 72.1611 20.416 72.1611ZM34.9795 77.5576C34.9795 78.6006 34.9004 79.5322 34.7422 80.3525C34.584 81.1729 34.335 81.8672 33.9951 82.4355C33.6553 83.0039 33.2158 83.4375 32.6768 83.7363C32.1377 84.0293 31.4902 84.1758 30.7344 84.1758C29.7793 84.1758 28.9883 83.915 28.3613 83.3936C27.7402 82.8721 27.2744 82.1191 26.9639 81.1348C26.6592 80.1445 26.5068 78.9521 26.5068 77.5576C26.5068 76.1865 26.6445 75.0088 26.9199 74.0244C27.2012 73.0342 27.6523 72.2754 28.2734 71.748C28.8945 71.2148 29.7148 70.9482 30.7344 70.9482C31.7012 70.9482 32.498 71.2119 33.125 71.7393C33.752 72.2607 34.2178 73.0166 34.5225 74.0068C34.8271 74.9912 34.9795 76.1748 34.9795 77.5576ZM27.9746 77.5576C27.9746 78.7529 28.0654 79.749 28.2471 80.5459C28.4287 81.3428 28.7217 81.9404 29.126 82.3389C29.5361 82.7314 30.0723 82.9277 30.7344 82.9277C31.3965 82.9277 31.9297 82.7314 32.334 82.3389C32.7441 81.9463 33.04 81.3516 33.2217 80.5547C33.4092 79.7578 33.5029 78.7588 33.5029 77.5576C33.5029 76.3799 33.4121 75.3955 33.2305 74.6045C33.0488 73.8076 32.7559 73.21 32.3516 72.8115C31.9473 72.4072 31.4082 72.2051 30.7344 72.2051C30.0605 72.2051 29.5215 72.4072 29.1172 72.8115C28.7129 73.21 28.4199 73.8076 28.2383 74.6045C28.0625 75.3955 27.9746 76.3799 27.9746 77.5576ZM45.2803 77.5576C45.2803 78.6006 45.2012 79.5322 45.043 80.3525C44.8848 81.1729 44.6357 81.8672 44.2959 82.4355C43.9561 83.0039 43.5166 83.4375 42.9775 83.7363C42.4385 84.0293 41.791 84.1758 41.0352 84.1758C40.0801 84.1758 39.2891 83.915 38.6621 83.3936C38.041 82.8721 37.5752 82.1191 37.2646 81.1348C36.96 80.1445 36.8076 78.9521 36.8076 77.5576C36.8076 76.1865 36.9453 75.0088 37.2207 74.0244C37.502 73.0342 37.9531 72.2754 38.5742 71.748C39.1953 71.2148 40.0156 70.9482 41.0352 70.9482C42.002 70.9482 42.7988 71.2119 43.4258 71.7393C44.0527 72.2607 44.5186 73.0166 44.8232 74.0068C45.1279 74.9912 45.2803 76.1748 45.2803 77.5576ZM38.2754 77.5576C38.2754 78.7529 38.3662 79.749 38.5479 80.5459C38.7295 81.3428 39.0225 81.9404 39.4268 82.3389C39.8369 82.7314 40.373 82.9277 41.0352 82.9277C41.6973 82.9277 42.2305 82.7314 42.6348 82.3389C43.0449 81.9463 43.3408 81.3516 43.5225 80.5547C43.71 79.7578 43.8037 78.7588 43.8037 77.5576C43.8037 76.3799 43.7129 75.3955 43.5312 74.6045C43.3496 73.8076 43.0566 73.21 42.6523 72.8115C42.248 72.4072 41.709 72.2051 41.0352 72.2051C40.3613 72.2051 39.8223 72.4072 39.418 72.8115C39.0137 73.21 38.7207 73.8076 38.5391 74.6045C38.3633 75.3955 38.2754 76.3799 38.2754 77.5576ZM55.5811 77.5576C55.5811 78.6006 55.502 79.5322 55.3438 80.3525C55.1855 81.1729 54.9365 81.8672 54.5967 82.4355C54.2568 83.0039 53.8174 83.4375 53.2783 83.7363C52.7393 84.0293 52.0918 84.1758 51.3359 84.1758C50.3809 84.1758 49.5898 83.915 48.9629 83.3936C48.3418 82.8721 47.876 82.1191 47.5654 81.1348C47.2607 80.1445 47.1084 78.9521 47.1084 77.5576C47.1084 76.1865 47.2461 75.0088 47.5215 74.0244C47.8027 73.0342 48.2539 72.2754 48.875 71.748C49.4961 71.2148 50.3164 70.9482 51.3359 70.9482C52.3027 70.9482 53.0996 71.2119 53.7266 71.7393C54.3535 72.2607 54.8193 73.0166 55.124 74.0068C55.4287 74.9912 55.5811 76.1748 55.5811 77.5576ZM48.5762 77.5576C48.5762 78.7529 48.667 79.749 48.8486 80.5459C49.0303 81.3428 49.3232 81.9404 49.7275 82.3389C50.1377 82.7314 50.6738 82.9277 51.3359 82.9277C51.998 82.9277 52.5312 82.7314 52.9355 82.3389C53.3457 81.9463 53.6416 81.3516 53.8232 80.5547C54.0107 79.7578 54.1045 78.7588 54.1045 77.5576C54.1045 76.3799 54.0137 75.3955 53.832 74.6045C53.6504 73.8076 53.3574 73.21 52.9531 72.8115C52.5488 72.4072 52.0098 72.2051 51.3359 72.2051C50.6621 72.2051 50.123 72.4072 49.7188 72.8115C49.3145 73.21 49.0215 73.8076 48.8398 74.6045C48.6641 75.3955 48.5762 76.3799 48.5762 77.5576Z" fill="#6D6D6D"/>
<path d="M11.3193 116H9.89551V106.895C9.89551 106.549 9.89551 106.253 9.89551 106.007C9.90137 105.755 9.90723 105.526 9.91309 105.321C9.9248 105.11 9.93945 104.896 9.95703 104.68C9.77539 104.867 9.60547 105.028 9.44727 105.163C9.28906 105.292 9.09277 105.453 8.8584 105.646L7.39062 106.824L6.62598 105.831L10.1064 103.15H11.3193V116ZM16.3203 110.507C16.3203 109.733 16.373 108.978 16.4785 108.239C16.5898 107.501 16.7744 106.815 17.0322 106.183C17.29 105.544 17.6416 104.984 18.0869 104.504C18.5322 104.023 19.0859 103.648 19.748 103.379C20.416 103.104 21.2158 102.966 22.1475 102.966C22.4111 102.966 22.6953 102.98 23 103.01C23.3047 103.033 23.5566 103.074 23.7559 103.133V104.39C23.5391 104.313 23.29 104.258 23.0088 104.223C22.7334 104.188 22.4551 104.17 22.1738 104.17C21.084 104.17 20.2256 104.407 19.5986 104.882C18.9775 105.356 18.5293 106.001 18.2539 106.815C17.9785 107.624 17.8203 108.535 17.7793 109.549H17.876C18.0576 109.256 18.2891 108.992 18.5703 108.758C18.8516 108.518 19.1914 108.327 19.5898 108.187C19.9941 108.046 20.4629 107.976 20.9961 107.976C21.7461 107.976 22.3994 108.128 22.9561 108.433C23.5186 108.737 23.9521 109.18 24.2568 109.76C24.5674 110.34 24.7227 111.043 24.7227 111.869C24.7227 112.754 24.5586 113.519 24.2305 114.163C23.9023 114.808 23.4336 115.306 22.8242 115.657C22.2207 116.003 21.5 116.176 20.6621 116.176C20.0352 116.176 19.458 116.056 18.9307 115.815C18.4033 115.575 17.9434 115.218 17.5508 114.743C17.1641 114.269 16.8623 113.68 16.6455 112.977C16.4287 112.268 16.3203 111.444 16.3203 110.507ZM20.6445 114.945C21.4414 114.945 22.0801 114.69 22.5605 114.181C23.041 113.671 23.2812 112.9 23.2812 111.869C23.2812 111.025 23.0674 110.357 22.6396 109.865C22.2119 109.373 21.5674 109.127 20.7061 109.127C20.1201 109.127 19.6104 109.25 19.1768 109.496C18.7432 109.736 18.4062 110.041 18.166 110.41C17.9258 110.779 17.8057 111.154 17.8057 111.535C17.8057 111.922 17.8613 112.314 17.9727 112.713C18.0898 113.111 18.2656 113.48 18.5 113.82C18.7344 114.16 19.0303 114.433 19.3877 114.638C19.7451 114.843 20.1641 114.945 20.6445 114.945ZM34.9795 109.558C34.9795 110.601 34.9004 111.532 34.7422 112.353C34.584 113.173 34.335 113.867 33.9951 114.436C33.6553 115.004 33.2158 115.438 32.6768 115.736C32.1377 116.029 31.4902 116.176 30.7344 116.176C29.7793 116.176 28.9883 115.915 28.3613 115.394C27.7402 114.872 27.2744 114.119 26.9639 113.135C26.6592 112.145 26.5068 110.952 26.5068 109.558C26.5068 108.187 26.6445 107.009 26.9199 106.024C27.2012 105.034 27.6523 104.275 28.2734 103.748C28.8945 103.215 29.7148 102.948 30.7344 102.948C31.7012 102.948 32.498 103.212 33.125 103.739C33.752 104.261 34.2178 105.017 34.5225 106.007C34.8271 106.991 34.9795 108.175 34.9795 109.558ZM27.9746 109.558C27.9746 110.753 28.0654 111.749 28.2471 112.546C28.4287 113.343 28.7217 113.94 29.126 114.339C29.5361 114.731 30.0723 114.928 30.7344 114.928C31.3965 114.928 31.9297 114.731 32.334 114.339C32.7441 113.946 33.04 113.352 33.2217 112.555C33.4092 111.758 33.5029 110.759 33.5029 109.558C33.5029 108.38 33.4121 107.396 33.2305 106.604C33.0488 105.808 32.7559 105.21 32.3516 104.812C31.9473 104.407 31.4082 104.205 30.7344 104.205C30.0605 104.205 29.5215 104.407 29.1172 104.812C28.7129 105.21 28.4199 105.808 28.2383 106.604C28.0625 107.396 27.9746 108.38 27.9746 109.558ZM45.2803 109.558C45.2803 110.601 45.2012 111.532 45.043 112.353C44.8848 113.173 44.6357 113.867 44.2959 114.436C43.9561 115.004 43.5166 115.438 42.9775 115.736C42.4385 116.029 41.791 116.176 41.0352 116.176C40.0801 116.176 39.2891 115.915 38.6621 115.394C38.041 114.872 37.5752 114.119 37.2646 113.135C36.96 112.145 36.8076 110.952 36.8076 109.558C36.8076 108.187 36.9453 107.009 37.2207 106.024C37.502 105.034 37.9531 104.275 38.5742 103.748C39.1953 103.215 40.0156 102.948 41.0352 102.948C42.002 102.948 42.7988 103.212 43.4258 103.739C44.0527 104.261 44.5186 105.017 44.8232 106.007C45.1279 106.991 45.2803 108.175 45.2803 109.558ZM38.2754 109.558C38.2754 110.753 38.3662 111.749 38.5479 112.546C38.7295 113.343 39.0225 113.94 39.4268 114.339C39.8369 114.731 40.373 114.928 41.0352 114.928C41.6973 114.928 42.2305 114.731 42.6348 114.339C43.0449 113.946 43.3408 113.352 43.5225 112.555C43.71 111.758 43.8037 110.759 43.8037 109.558C43.8037 108.38 43.7129 107.396 43.5312 106.604C43.3496 105.808 43.0566 105.21 42.6523 104.812C42.248 104.407 41.709 104.205 41.0352 104.205C40.3613 104.205 39.8223 104.407 39.418 104.812C39.0137 105.21 38.7207 105.808 38.5391 106.604C38.3633 107.396 38.2754 108.38 38.2754 109.558ZM55.5811 109.558C55.5811 110.601 55.502 111.532 55.3438 112.353C55.1855 113.173 54.9365 113.867 54.5967 114.436C54.2568 115.004 53.8174 115.438 53.2783 115.736C52.7393 116.029 52.0918 116.176 51.3359 116.176C50.3809 116.176 49.5898 115.915 48.9629 115.394C48.3418 114.872 47.876 114.119 47.5654 113.135C47.2607 112.145 47.1084 110.952 47.1084 109.558C47.1084 108.187 47.2461 107.009 47.5215 106.024C47.8027 105.034 48.2539 104.275 48.875 103.748C49.4961 103.215 50.3164 102.948 51.3359 102.948C52.3027 102.948 53.0996 103.212 53.7266 103.739C54.3535 104.261 54.8193 105.017 55.124 106.007C55.4287 106.991 55.5811 108.175 55.5811 109.558ZM48.5762 109.558C48.5762 110.753 48.667 111.749 48.8486 112.546C49.0303 113.343 49.3232 113.94 49.7275 114.339C50.1377 114.731 50.6738 114.928 51.3359 114.928C51.998 114.928 52.5312 114.731 52.9355 114.339C53.3457 113.946 53.6416 113.352 53.8232 112.555C54.0107 111.758 54.1045 110.759 54.1045 109.558C54.1045 108.38 54.0137 107.396 53.832 106.604C53.6504 105.808 53.3574 105.21 52.9531 104.812C52.5488 104.407 52.0098 104.205 51.3359 104.205C50.6621 104.205 50.123 104.407 49.7188 104.812C49.3145 105.21 49.0215 105.808 48.8398 106.604C48.6641 107.396 48.5762 108.38 48.5762 109.558Z" fill="#6D6D6D"/>
<path d="M14.3076 52H5.8877V50.7783L9.32422 47.2891C9.96289 46.6445 10.499 46.0703 10.9326 45.5664C11.3721 45.0625 11.7061 44.5674 11.9346 44.0811C12.1631 43.5889 12.2773 43.0498 12.2773 42.4639C12.2773 41.7373 12.0605 41.1836 11.627 40.8027C11.1992 40.416 10.6338 40.2227 9.93066 40.2227C9.31543 40.2227 8.77051 40.3281 8.2959 40.5391C7.82129 40.75 7.33496 41.0488 6.83691 41.4355L6.05469 40.4512C6.39453 40.1641 6.76367 39.9092 7.16211 39.6865C7.56641 39.4639 7.99707 39.2881 8.4541 39.1592C8.91699 39.0303 9.40918 38.9658 9.93066 38.9658C10.7217 38.9658 11.4043 39.1035 11.9785 39.3789C12.5527 39.6543 12.9951 40.0469 13.3057 40.5566C13.6221 41.0664 13.7803 41.6729 13.7803 42.376C13.7803 43.0557 13.6455 43.6885 13.376 44.2744C13.1064 44.8545 12.7285 45.4316 12.2422 46.0059C11.7559 46.5742 11.1875 47.1777 10.5371 47.8164L7.74219 50.6025V50.6641H14.3076V52ZM24.6787 45.5576C24.6787 46.6006 24.5996 47.5322 24.4414 48.3525C24.2832 49.1729 24.0342 49.8672 23.6943 50.4355C23.3545 51.0039 22.915 51.4375 22.376 51.7363C21.8369 52.0293 21.1895 52.1758 20.4336 52.1758C19.4785 52.1758 18.6875 51.915 18.0605 51.3936C17.4395 50.8721 16.9736 50.1191 16.6631 49.1348C16.3584 48.1445 16.2061 46.9521 16.2061 45.5576C16.2061 44.1865 16.3438 43.0088 16.6191 42.0244C16.9004 41.0342 17.3516 40.2754 17.9727 39.748C18.5938 39.2148 19.4141 38.9482 20.4336 38.9482C21.4004 38.9482 22.1973 39.2119 22.8242 39.7393C23.4512 40.2607 23.917 41.0166 24.2217 42.0068C24.5264 42.9912 24.6787 44.1748 24.6787 45.5576ZM17.6738 45.5576C17.6738 46.7529 17.7646 47.749 17.9463 48.5459C18.1279 49.3428 18.4209 49.9404 18.8252 50.3389C19.2354 50.7314 19.7715 50.9277 20.4336 50.9277C21.0957 50.9277 21.6289 50.7314 22.0332 50.3389C22.4434 49.9463 22.7393 49.3516 22.9209 48.5547C23.1084 47.7578 23.2021 46.7588 23.2021 45.5576C23.2021 44.3799 23.1113 43.3955 22.9297 42.6045C22.748 41.8076 22.4551 41.21 22.0508 40.8115C21.6465 40.4072 21.1074 40.2051 20.4336 40.2051C19.7598 40.2051 19.2207 40.4072 18.8164 40.8115C18.4121 41.21 18.1191 41.8076 17.9375 42.6045C17.7617 43.3955 17.6738 44.3799 17.6738 45.5576ZM34.9795 45.5576C34.9795 46.6006 34.9004 47.5322 34.7422 48.3525C34.584 49.1729 34.335 49.8672 33.9951 50.4355C33.6553 51.0039 33.2158 51.4375 32.6768 51.7363C32.1377 52.0293 31.4902 52.1758 30.7344 52.1758C29.7793 52.1758 28.9883 51.915 28.3613 51.3936C27.7402 50.8721 27.2744 50.1191 26.9639 49.1348C26.6592 48.1445 26.5068 46.9521 26.5068 45.5576C26.5068 44.1865 26.6445 43.0088 26.9199 42.0244C27.2012 41.0342 27.6523 40.2754 28.2734 39.748C28.8945 39.2148 29.7148 38.9482 30.7344 38.9482C31.7012 38.9482 32.498 39.2119 33.125 39.7393C33.752 40.2607 34.2178 41.0166 34.5225 42.0068C34.8271 42.9912 34.9795 44.1748 34.9795 45.5576ZM27.9746 45.5576C27.9746 46.7529 28.0654 47.749 28.2471 48.5459C28.4287 49.3428 28.7217 49.9404 29.126 50.3389C29.5361 50.7314 30.0723 50.9277 30.7344 50.9277C31.3965 50.9277 31.9297 50.7314 32.334 50.3389C32.7441 49.9463 33.04 49.3516 33.2217 48.5547C33.4092 47.7578 33.5029 46.7588 33.5029 45.5576C33.5029 44.3799 33.4121 43.3955 33.2305 42.6045C33.0488 41.8076 32.7559 41.21 32.3516 40.8115C31.9473 40.4072 31.4082 40.2051 30.7344 40.2051C30.0605 40.2051 29.5215 40.4072 29.1172 40.8115C28.7129 41.21 28.4199 41.8076 28.2383 42.6045C28.0625 43.3955 27.9746 44.3799 27.9746 45.5576ZM45.2803 45.5576C45.2803 46.6006 45.2012 47.5322 45.043 48.3525C44.8848 49.1729 44.6357 49.8672 44.2959 50.4355C43.9561 51.0039 43.5166 51.4375 42.9775 51.7363C42.4385 52.0293 41.791 52.1758 41.0352 52.1758C40.0801 52.1758 39.2891 51.915 38.6621 51.3936C38.041 50.8721 37.5752 50.1191 37.2646 49.1348C36.96 48.1445 36.8076 46.9521 36.8076 45.5576C36.8076 44.1865 36.9453 43.0088 37.2207 42.0244C37.502 41.0342 37.9531 40.2754 38.5742 39.748C39.1953 39.2148 40.0156 38.9482 41.0352 38.9482C42.002 38.9482 42.7988 39.2119 43.4258 39.7393C44.0527 40.2607 44.5186 41.0166 44.8232 42.0068C45.1279 42.9912 45.2803 44.1748 45.2803 45.5576ZM38.2754 45.5576C38.2754 46.7529 38.3662 47.749 38.5479 48.5459C38.7295 49.3428 39.0225 49.9404 39.4268 50.3389C39.8369 50.7314 40.373 50.9277 41.0352 50.9277C41.6973 50.9277 42.2305 50.7314 42.6348 50.3389C43.0449 49.9463 43.3408 49.3516 43.5225 48.5547C43.71 47.7578 43.8037 46.7588 43.8037 45.5576C43.8037 44.3799 43.7129 43.3955 43.5312 42.6045C43.3496 41.8076 43.0566 41.21 42.6523 40.8115C42.248 40.4072 41.709 40.2051 41.0352 40.2051C40.3613 40.2051 39.8223 40.4072 39.418 40.8115C39.0137 41.21 38.7207 41.8076 38.5391 42.6045C38.3633 43.3955 38.2754 44.3799 38.2754 45.5576ZM55.5811 45.5576C55.5811 46.6006 55.502 47.5322 55.3438 48.3525C55.1855 49.1729 54.9365 49.8672 54.5967 50.4355C54.2568 51.0039 53.8174 51.4375 53.2783 51.7363C52.7393 52.0293 52.0918 52.1758 51.3359 52.1758C50.3809 52.1758 49.5898 51.915 48.9629 51.3936C48.3418 50.8721 47.876 50.1191 47.5654 49.1348C47.2607 48.1445 47.1084 46.9521 47.1084 45.5576C47.1084 44.1865 47.2461 43.0088 47.5215 42.0244C47.8027 41.0342 48.2539 40.2754 48.875 39.748C49.4961 39.2148 50.3164 38.9482 51.3359 38.9482C52.3027 38.9482 53.0996 39.2119 53.7266 39.7393C54.3535 40.2607 54.8193 41.0166 55.124 42.0068C55.4287 42.9912 55.5811 44.1748 55.5811 45.5576ZM48.5762 45.5576C48.5762 46.7529 48.667 47.749 48.8486 48.5459C49.0303 49.3428 49.3232 49.9404 49.7275 50.3389C50.1377 50.7314 50.6738 50.9277 51.3359 50.9277C51.998 50.9277 52.5312 50.7314 52.9355 50.3389C53.3457 49.9463 53.6416 49.3516 53.8232 48.5547C54.0107 47.7578 54.1045 46.7588 54.1045 45.5576C54.1045 44.3799 54.0137 43.3955 53.832 42.6045C53.6504 41.8076 53.3574 41.21 52.9531 40.8115C52.5488 40.4072 52.0098 40.2051 51.3359 40.2051C50.6621 40.2051 50.123 40.4072 49.7188 40.8115C49.3145 41.21 49.0215 41.8076 48.8398 42.6045C48.6641 43.3955 48.5762 44.3799 48.5762 45.5576Z" fill="#6D6D6D"/>
<path d="M76 238.5L124 204.5L163.5 271.5L208 238L254 172.5L297.5 108.5L342 141L384 46L426.5 204.5L473 141H516L549 120.5" stroke="#6D6D6D" stroke-width="2"/>
<circle cx="76" cy="238" r="3" fill="#E5E5E5" stroke="#6F72C1" stroke-width="2"/>
<circle cx="124" cy="205" r="3" fill="#E5E5E5" stroke="#6F72C1" stroke-width="2"/>
<circle cx="164" cy="271" r="3" fill="#E5E5E5" stroke="#6F72C1" stroke-width="2"/>
<circle cx="208" cy="238" r="3" fill="#E5E5E5" stroke="#6F72C1" stroke-width="2"/>
<circle cx="254" cy="173" r="3" fill="#E5E5E5" stroke="#6F72C1" stroke-width="2"/>
<circle cx="298" cy="109" r="3" fill="#E5E5E5" stroke="#6F72C1" stroke-width="2"/>
<circle cx="342" cy="141" r="3" fill="#E5E5E5" stroke="#6F72C1" stroke-width="2"/>
<circle cx="383" cy="46" r="3" fill="#E5E5E5" stroke="#6F72C1" stroke-width="2"/>
<circle cx="427" cy="205" r="3" fill="#E5E5E5" stroke="#6F72C1" stroke-width="2"/>
<circle cx="473" cy="141" r="3" fill="#E5E5E5" stroke="#6F72C1" stroke-width="2"/>
<path d="M60.7578 339.883V342.484C61.3945 342.539 61.9492 342.705 62.4219 342.982C62.8945 343.256 63.2617 343.629 63.5234 344.102C63.7852 344.574 63.916 345.137 63.916 345.789C63.916 346.43 63.7891 346.988 63.5352 347.465C63.2852 347.941 62.9238 348.318 62.4512 348.596C61.9824 348.873 61.418 349.039 60.7578 349.094V351.883H59.8086V349.094C59.1719 349.047 58.6172 348.887 58.1445 348.613C57.6758 348.336 57.3105 347.959 57.0488 347.482C56.7871 347.006 56.6562 346.441 56.6562 345.789C56.6562 345.137 56.7812 344.574 57.0312 344.102C57.2852 343.625 57.6484 343.25 58.1211 342.977C58.5938 342.699 59.166 342.535 59.8379 342.484V339.883H60.7578ZM59.8379 343.293C59.3418 343.336 58.9336 343.461 58.6133 343.668C58.293 343.875 58.0547 344.156 57.8984 344.512C57.7461 344.867 57.6699 345.293 57.6699 345.789C57.6699 346.285 57.748 346.713 57.9043 347.072C58.0605 347.428 58.2988 347.709 58.6191 347.916C58.9395 348.123 59.3457 348.25 59.8379 348.297V343.293ZM60.7578 343.305V348.297C61.25 348.246 61.6543 348.115 61.9707 347.904C62.291 347.693 62.5273 347.41 62.6797 347.055C62.8359 346.699 62.9141 346.277 62.9141 345.789C62.9141 345.047 62.7363 344.467 62.3809 344.049C62.0254 343.627 61.4844 343.379 60.7578 343.305ZM68.0879 342.461C68.6348 342.461 69.1035 342.582 69.4941 342.824C69.8848 343.066 70.1836 343.406 70.3906 343.844C70.5977 344.277 70.7012 344.785 70.7012 345.367V345.971H66.2656C66.2773 346.725 66.4648 347.299 66.8281 347.693C67.1914 348.088 67.7031 348.285 68.3633 348.285C68.7695 348.285 69.1289 348.248 69.4414 348.174C69.7539 348.1 70.0781 347.99 70.4141 347.846V348.701C70.0898 348.846 69.7676 348.951 69.4473 349.018C69.1309 349.084 68.7559 349.117 68.3223 349.117C67.7051 349.117 67.166 348.992 66.7051 348.742C66.248 348.488 65.8926 348.117 65.6387 347.629C65.3848 347.141 65.2578 346.543 65.2578 345.836C65.2578 345.145 65.373 344.547 65.6035 344.043C65.8379 343.535 66.166 343.145 66.5879 342.871C67.0137 342.598 67.5137 342.461 68.0879 342.461ZM68.0762 343.258C67.5566 343.258 67.1426 343.428 66.834 343.768C66.5254 344.107 66.3418 344.582 66.2832 345.191H69.6816C69.6777 344.809 69.6172 344.473 69.5 344.184C69.3867 343.891 69.2129 343.664 68.9785 343.504C68.7441 343.34 68.4434 343.258 68.0762 343.258ZM77.457 344.189C77.457 344.592 77.3398 344.906 77.1055 345.133C76.8711 345.355 76.5684 345.506 76.1973 345.584V345.631C76.5996 345.686 76.9453 345.83 77.2344 346.064C77.5273 346.295 77.6738 346.648 77.6738 347.125C77.6738 347.492 77.5859 347.816 77.4102 348.098C77.2344 348.379 76.959 348.6 76.584 348.76C76.209 348.92 75.7207 349 75.1191 349H72.3535V342.578H75.0957C75.5566 342.578 75.9629 342.631 76.3145 342.736C76.6699 342.838 76.9492 343.006 77.1523 343.24C77.3555 343.475 77.457 343.791 77.457 344.189ZM76.6602 347.125C76.6602 346.746 76.5156 346.473 76.2266 346.305C75.9414 346.137 75.5254 346.053 74.9785 346.053H73.332V348.209H75.002C75.541 348.209 75.9512 348.127 76.2324 347.963C76.5176 347.795 76.6602 347.516 76.6602 347.125ZM76.4668 344.301C76.4668 343.996 76.3555 343.77 76.1328 343.621C75.9102 343.469 75.5449 343.393 75.0371 343.393H73.332V345.238H74.8672C75.3945 345.238 75.793 345.162 76.0625 345.01C76.332 344.857 76.4668 344.621 76.4668 344.301ZM87.541 349H81.9277V348.186L84.2188 345.859C84.6445 345.43 85.002 345.047 85.291 344.711C85.584 344.375 85.8066 344.045 85.959 343.721C86.1113 343.393 86.1875 343.033 86.1875 342.643C86.1875 342.158 86.043 341.789 85.7539 341.535C85.4688 341.277 85.0918 341.148 84.623 341.148C84.2129 341.148 83.8496 341.219 83.5332 341.359C83.2168 341.5 82.8926 341.699 82.5605 341.957L82.0391 341.301C82.2656 341.109 82.5117 340.939 82.7773 340.791C83.0469 340.643 83.334 340.525 83.6387 340.439C83.9473 340.354 84.2754 340.311 84.623 340.311C85.1504 340.311 85.6055 340.402 85.9883 340.586C86.3711 340.77 86.666 341.031 86.873 341.371C87.084 341.711 87.1895 342.115 87.1895 342.584C87.1895 343.037 87.0996 343.459 86.9199 343.85C86.7402 344.236 86.4883 344.621 86.1641 345.004C85.8398 345.383 85.4609 345.785 85.0273 346.211L83.1641 348.068V348.109H87.541V349ZM92.416 349H91.4668V342.93C91.4668 342.699 91.4668 342.502 91.4668 342.338C91.4707 342.17 91.4746 342.018 91.4785 341.881C91.4863 341.74 91.4961 341.598 91.5078 341.453C91.3867 341.578 91.2734 341.686 91.168 341.775C91.0625 341.861 90.9316 341.969 90.7754 342.098L89.7969 342.883L89.2871 342.221L91.6074 340.434H92.416V349Z" fill="#6D6D6D"/>
<path d="M107.805 342.578V349H106.926V344.816C106.926 344.645 106.93 344.471 106.938 344.295C106.949 344.115 106.963 343.936 106.979 343.756H106.943L104.811 349H103.984L101.904 343.756H101.869C101.881 343.936 101.889 344.115 101.893 344.295C101.9 344.471 101.904 344.656 101.904 344.852V349H101.02V342.578H102.326L104.4 347.828L106.504 342.578H107.805ZM112.229 342.473C112.994 342.473 113.562 342.645 113.934 342.988C114.305 343.332 114.49 343.881 114.49 344.635V349H113.781L113.594 348.051H113.547C113.367 348.285 113.18 348.482 112.984 348.643C112.789 348.799 112.562 348.918 112.305 349C112.051 349.078 111.738 349.117 111.367 349.117C110.977 349.117 110.629 349.049 110.324 348.912C110.023 348.775 109.785 348.568 109.609 348.291C109.438 348.014 109.352 347.662 109.352 347.236C109.352 346.596 109.605 346.104 110.113 345.76C110.621 345.416 111.395 345.229 112.434 345.197L113.541 345.15V344.758C113.541 344.203 113.422 343.814 113.184 343.592C112.945 343.369 112.609 343.258 112.176 343.258C111.84 343.258 111.52 343.307 111.215 343.404C110.91 343.502 110.621 343.617 110.348 343.75L110.049 343.012C110.338 342.863 110.67 342.736 111.045 342.631C111.42 342.525 111.814 342.473 112.229 342.473ZM113.529 345.836L112.551 345.877C111.75 345.908 111.186 346.039 110.857 346.27C110.529 346.5 110.365 346.826 110.365 347.248C110.365 347.615 110.477 347.887 110.699 348.062C110.922 348.238 111.217 348.326 111.584 348.326C112.154 348.326 112.621 348.168 112.984 347.852C113.348 347.535 113.529 347.061 113.529 346.428V345.836ZM119.512 342.461C120.312 342.461 120.951 342.736 121.428 343.287C121.904 343.838 122.143 344.666 122.143 345.771C122.143 346.502 122.033 347.115 121.814 347.611C121.596 348.107 121.287 348.482 120.889 348.736C120.494 348.99 120.027 349.117 119.488 349.117C119.148 349.117 118.85 349.072 118.592 348.982C118.334 348.893 118.113 348.771 117.93 348.619C117.746 348.467 117.594 348.301 117.473 348.121H117.402C117.414 348.273 117.428 348.457 117.443 348.672C117.463 348.887 117.473 349.074 117.473 349.234V351.871H116.494V342.578H117.297L117.426 343.527H117.473C117.598 343.332 117.75 343.154 117.93 342.994C118.109 342.83 118.328 342.701 118.586 342.607C118.848 342.51 119.156 342.461 119.512 342.461ZM119.342 343.281C118.896 343.281 118.537 343.367 118.264 343.539C117.994 343.711 117.797 343.969 117.672 344.312C117.547 344.652 117.48 345.08 117.473 345.596V345.783C117.473 346.326 117.531 346.785 117.648 347.16C117.77 347.535 117.967 347.82 118.24 348.016C118.518 348.211 118.889 348.309 119.354 348.309C119.752 348.309 120.084 348.201 120.35 347.986C120.615 347.771 120.812 347.473 120.941 347.09C121.074 346.703 121.141 346.26 121.141 345.76C121.141 345.002 120.992 344.4 120.695 343.955C120.402 343.506 119.951 343.281 119.342 343.281ZM132.139 349H126.525V348.186L128.816 345.859C129.242 345.43 129.6 345.047 129.889 344.711C130.182 344.375 130.404 344.045 130.557 343.721C130.709 343.393 130.785 343.033 130.785 342.643C130.785 342.158 130.641 341.789 130.352 341.535C130.066 341.277 129.689 341.148 129.221 341.148C128.811 341.148 128.447 341.219 128.131 341.359C127.814 341.5 127.49 341.699 127.158 341.957L126.637 341.301C126.863 341.109 127.109 340.939 127.375 340.791C127.645 340.643 127.932 340.525 128.236 340.439C128.545 340.354 128.873 340.311 129.221 340.311C129.748 340.311 130.203 340.402 130.586 340.586C130.969 340.77 131.264 341.031 131.471 341.371C131.682 341.711 131.787 342.115 131.787 342.584C131.787 343.037 131.697 343.459 131.518 343.85C131.338 344.236 131.086 344.621 130.762 345.004C130.438 345.383 130.059 345.785 129.625 346.211L127.762 348.068V348.109H132.139V349ZM137.014 349H136.064V342.93C136.064 342.699 136.064 342.502 136.064 342.338C136.068 342.17 136.072 342.018 136.076 341.881C136.084 341.74 136.094 341.598 136.105 341.453C135.984 341.578 135.871 341.686 135.766 341.775C135.66 341.861 135.529 341.969 135.373 342.098L134.395 342.883L133.885 342.221L136.205 340.434H137.014V349Z" fill="#6D6D6D"/>
<path d="M148.428 342.473C149.193 342.473 149.762 342.645 150.133 342.988C150.504 343.332 150.689 343.881 150.689 344.635V349H149.98L149.793 348.051H149.746C149.566 348.285 149.379 348.482 149.184 348.643C148.988 348.799 148.762 348.918 148.504 349C148.25 349.078 147.938 349.117 147.566 349.117C147.176 349.117 146.828 349.049 146.523 348.912C146.223 348.775 145.984 348.568 145.809 348.291C145.637 348.014 145.551 347.662 145.551 347.236C145.551 346.596 145.805 346.104 146.312 345.76C146.82 345.416 147.594 345.229 148.633 345.197L149.74 345.15V344.758C149.74 344.203 149.621 343.814 149.383 343.592C149.145 343.369 148.809 343.258 148.375 343.258C148.039 343.258 147.719 343.307 147.414 343.404C147.109 343.502 146.82 343.617 146.547 343.75L146.248 343.012C146.537 342.863 146.869 342.736 147.244 342.631C147.619 342.525 148.014 342.473 148.428 342.473ZM149.729 345.836L148.75 345.877C147.949 345.908 147.385 346.039 147.057 346.27C146.729 346.5 146.564 346.826 146.564 347.248C146.564 347.615 146.676 347.887 146.898 348.062C147.121 348.238 147.416 348.326 147.783 348.326C148.354 348.326 148.82 348.168 149.184 347.852C149.547 347.535 149.729 347.061 149.729 346.428V345.836ZM158.072 342.578V349H157.094V343.416H153.672V349H152.693V342.578H158.072ZM163.152 342.461C163.953 342.461 164.592 342.736 165.068 343.287C165.545 343.838 165.783 344.666 165.783 345.771C165.783 346.502 165.674 347.115 165.455 347.611C165.236 348.107 164.928 348.482 164.529 348.736C164.135 348.99 163.668 349.117 163.129 349.117C162.789 349.117 162.49 349.072 162.232 348.982C161.975 348.893 161.754 348.771 161.57 348.619C161.387 348.467 161.234 348.301 161.113 348.121H161.043C161.055 348.273 161.068 348.457 161.084 348.672C161.104 348.887 161.113 349.074 161.113 349.234V351.871H160.135V342.578H160.938L161.066 343.527H161.113C161.238 343.332 161.391 343.154 161.57 342.994C161.75 342.83 161.969 342.701 162.227 342.607C162.488 342.51 162.797 342.461 163.152 342.461ZM162.982 343.281C162.537 343.281 162.178 343.367 161.904 343.539C161.635 343.711 161.438 343.969 161.312 344.312C161.188 344.652 161.121 345.08 161.113 345.596V345.783C161.113 346.326 161.172 346.785 161.289 347.16C161.41 347.535 161.607 347.82 161.881 348.016C162.158 348.211 162.529 348.309 162.994 348.309C163.393 348.309 163.725 348.201 163.99 347.986C164.256 347.771 164.453 347.473 164.582 347.09C164.715 346.703 164.781 346.26 164.781 345.76C164.781 345.002 164.633 344.4 164.336 343.955C164.043 343.506 163.592 343.281 162.982 343.281ZM175.779 349H170.166V348.186L172.457 345.859C172.883 345.43 173.24 345.047 173.529 344.711C173.822 344.375 174.045 344.045 174.197 343.721C174.35 343.393 174.426 343.033 174.426 342.643C174.426 342.158 174.281 341.789 173.992 341.535C173.707 341.277 173.33 341.148 172.861 341.148C172.451 341.148 172.088 341.219 171.771 341.359C171.455 341.5 171.131 341.699 170.799 341.957L170.277 341.301C170.504 341.109 170.75 340.939 171.016 340.791C171.285 340.643 171.572 340.525 171.877 340.439C172.186 340.354 172.514 340.311 172.861 340.311C173.389 340.311 173.844 340.402 174.227 340.586C174.609 340.77 174.904 341.031 175.111 341.371C175.322 341.711 175.428 342.115 175.428 342.584C175.428 343.037 175.338 343.459 175.158 343.85C174.979 344.236 174.727 344.621 174.402 345.004C174.078 345.383 173.699 345.785 173.266 346.211L171.402 348.068V348.109H175.779V349ZM180.654 349H179.705V342.93C179.705 342.699 179.705 342.502 179.705 342.338C179.709 342.17 179.713 342.018 179.717 341.881C179.725 341.74 179.734 341.598 179.746 341.453C179.625 341.578 179.512 341.686 179.406 341.775C179.301 341.861 179.17 341.969 179.014 342.098L178.035 342.883L177.525 342.221L179.846 340.434H180.654V349Z" fill="#6D6D6D"/>
<path d="M234.951 342.578V346.615C234.951 346.693 234.949 346.795 234.945 346.92C234.941 347.041 234.936 347.172 234.928 347.312C234.92 347.449 234.912 347.582 234.904 347.711C234.9 347.836 234.895 347.939 234.887 348.021L238.391 342.578H239.586V349H238.678V345.062C238.678 344.938 238.68 344.777 238.684 344.582C238.688 344.387 238.693 344.195 238.701 344.008C238.709 343.816 238.715 343.668 238.719 343.562L235.227 349H234.025V342.578H234.951ZM249.91 345.777C249.91 346.477 249.797 347.076 249.57 347.576C249.348 348.076 249.027 348.459 248.609 348.725C248.191 348.986 247.691 349.117 247.109 349.117C246.566 349.117 246.092 349 245.686 348.766C245.283 348.531 244.965 348.189 244.73 347.74C244.5 347.291 244.367 346.744 244.332 346.1H242.627V349H241.654V342.578H242.627V345.273H244.344C244.398 344.68 244.543 344.174 244.777 343.756C245.012 343.338 245.328 343.018 245.727 342.795C246.125 342.572 246.594 342.461 247.133 342.461C247.695 342.461 248.184 342.594 248.598 342.859C249.016 343.121 249.338 343.5 249.564 343.996C249.795 344.488 249.91 345.082 249.91 345.777ZM245.328 345.777C245.328 346.316 245.389 346.775 245.51 347.154C245.635 347.529 245.828 347.816 246.09 348.016C246.355 348.211 246.699 348.309 247.121 348.309C247.539 348.309 247.879 348.211 248.141 348.016C248.406 347.82 248.6 347.535 248.721 347.16C248.846 346.781 248.908 346.32 248.908 345.777C248.908 345.242 248.846 344.789 248.721 344.418C248.596 344.047 248.402 343.766 248.141 343.574C247.879 343.379 247.539 343.281 247.121 343.281C246.703 343.281 246.361 343.379 246.096 343.574C245.834 343.766 245.641 344.047 245.516 344.418C245.391 344.789 245.328 345.242 245.328 345.777ZM252.582 342.578V345.273H256.162V342.578H257.135V349H256.162V346.1H252.582V349H251.604V342.578H252.582ZM267.494 349H261.881V348.186L264.172 345.859C264.598 345.43 264.955 345.047 265.244 344.711C265.537 344.375 265.76 344.045 265.912 343.721C266.064 343.393 266.141 343.033 266.141 342.643C266.141 342.158 265.996 341.789 265.707 341.535C265.422 341.277 265.045 341.148 264.576 341.148C264.166 341.148 263.803 341.219 263.486 341.359C263.17 341.5 262.846 341.699 262.514 341.957L261.992 341.301C262.219 341.109 262.465 340.939 262.73 340.791C263 340.643 263.287 340.525 263.592 340.439C263.9 340.354 264.229 340.311 264.576 340.311C265.104 340.311 265.559 340.402 265.941 340.586C266.324 340.77 266.619 341.031 266.826 341.371C267.037 341.711 267.143 342.115 267.143 342.584C267.143 343.037 267.053 343.459 266.873 343.85C266.693 344.236 266.441 344.621 266.117 345.004C265.793 345.383 265.414 345.785 264.98 346.211L263.117 348.068V348.109H267.494V349ZM272.369 349H271.42V342.93C271.42 342.699 271.42 342.502 271.42 342.338C271.424 342.17 271.428 342.018 271.432 341.881C271.439 341.74 271.449 341.598 271.461 341.453C271.34 341.578 271.227 341.686 271.121 341.775C271.016 341.861 270.885 341.969 270.729 342.098L269.75 342.883L269.24 342.221L271.561 340.434H272.369V349Z" fill="#6D6D6D"/>
<path d="M195.805 342.578V349H194.926V344.816C194.926 344.645 194.93 344.471 194.938 344.295C194.949 344.115 194.963 343.936 194.979 343.756H194.943L192.811 349H191.984L189.904 343.756H189.869C189.881 343.936 189.889 344.115 189.893 344.295C189.9 344.471 189.904 344.656 189.904 344.852V349H189.02V342.578H190.326L192.4 347.828L194.504 342.578H195.805ZM200.229 342.473C200.994 342.473 201.562 342.645 201.934 342.988C202.305 343.332 202.49 343.881 202.49 344.635V349H201.781L201.594 348.051H201.547C201.367 348.285 201.18 348.482 200.984 348.643C200.789 348.799 200.562 348.918 200.305 349C200.051 349.078 199.738 349.117 199.367 349.117C198.977 349.117 198.629 349.049 198.324 348.912C198.023 348.775 197.785 348.568 197.609 348.291C197.438 348.014 197.352 347.662 197.352 347.236C197.352 346.596 197.605 346.104 198.113 345.76C198.621 345.416 199.395 345.229 200.434 345.197L201.541 345.15V344.758C201.541 344.203 201.422 343.814 201.184 343.592C200.945 343.369 200.609 343.258 200.176 343.258C199.84 343.258 199.52 343.307 199.215 343.404C198.91 343.502 198.621 343.617 198.348 343.75L198.049 343.012C198.338 342.863 198.67 342.736 199.045 342.631C199.42 342.525 199.814 342.473 200.229 342.473ZM201.529 345.836L200.551 345.877C199.75 345.908 199.186 346.039 198.857 346.27C198.529 346.5 198.365 346.826 198.365 347.248C198.365 347.615 198.477 347.887 198.699 348.062C198.922 348.238 199.217 348.326 199.584 348.326C200.154 348.326 200.621 348.168 200.984 347.852C201.348 347.535 201.529 347.061 201.529 346.428V345.836ZM205.42 342.578V346.615C205.42 346.693 205.418 346.795 205.414 346.92C205.41 347.041 205.404 347.172 205.396 347.312C205.389 347.449 205.381 347.582 205.373 347.711C205.369 347.836 205.363 347.939 205.355 348.021L208.859 342.578H210.055V349H209.146V345.062C209.146 344.938 209.148 344.777 209.152 344.582C209.156 344.387 209.162 344.195 209.17 344.008C209.178 343.816 209.184 343.668 209.188 343.562L205.695 349H204.494V342.578H205.42ZM209.574 339.936C209.539 340.33 209.439 340.66 209.275 340.926C209.115 341.191 208.879 341.393 208.566 341.529C208.254 341.662 207.854 341.729 207.365 341.729C206.861 341.729 206.455 341.664 206.146 341.535C205.842 341.402 205.615 341.203 205.467 340.938C205.322 340.672 205.236 340.338 205.209 339.936H206.123C206.166 340.365 206.281 340.658 206.469 340.814C206.656 340.971 206.961 341.049 207.383 341.049C207.758 341.049 208.053 340.967 208.268 340.803C208.482 340.639 208.611 340.35 208.654 339.936H209.574ZM220.42 349H214.807V348.186L217.098 345.859C217.523 345.43 217.881 345.047 218.17 344.711C218.463 344.375 218.686 344.045 218.838 343.721C218.99 343.393 219.066 343.033 219.066 342.643C219.066 342.158 218.922 341.789 218.633 341.535C218.348 341.277 217.971 341.148 217.502 341.148C217.092 341.148 216.729 341.219 216.412 341.359C216.096 341.5 215.771 341.699 215.439 341.957L214.918 341.301C215.145 341.109 215.391 340.939 215.656 340.791C215.926 340.643 216.213 340.525 216.518 340.439C216.826 340.354 217.154 340.311 217.502 340.311C218.029 340.311 218.484 340.402 218.867 340.586C219.25 340.77 219.545 341.031 219.752 341.371C219.963 341.711 220.068 342.115 220.068 342.584C220.068 343.037 219.979 343.459 219.799 343.85C219.619 344.236 219.367 344.621 219.043 345.004C218.719 345.383 218.34 345.785 217.906 346.211L216.043 348.068V348.109H220.42V349ZM225.295 349H224.346V342.93C224.346 342.699 224.346 342.502 224.346 342.338C224.35 342.17 224.354 342.018 224.357 341.881C224.365 341.74 224.375 341.598 224.387 341.453C224.266 341.578 224.152 341.686 224.047 341.775C223.941 341.861 223.811 341.969 223.654 342.098L222.676 342.883L222.166 342.221L224.486 340.434H225.295V349Z" fill="#6D6D6D"/>
<path d="M278.951 342.578V346.615C278.951 346.693 278.949 346.795 278.945 346.92C278.941 347.041 278.936 347.172 278.928 347.312C278.92 347.449 278.912 347.582 278.904 347.711C278.9 347.836 278.895 347.939 278.887 348.021L282.391 342.578H283.586V349H282.678V345.062C282.678 344.938 282.68 344.777 282.684 344.582C282.688 344.387 282.693 344.195 282.701 344.008C282.709 343.816 282.715 343.668 282.719 343.562L279.227 349H278.025V342.578H278.951ZM293.91 345.777C293.91 346.477 293.797 347.076 293.57 347.576C293.348 348.076 293.027 348.459 292.609 348.725C292.191 348.986 291.691 349.117 291.109 349.117C290.566 349.117 290.092 349 289.686 348.766C289.283 348.531 288.965 348.189 288.73 347.74C288.5 347.291 288.367 346.744 288.332 346.1H286.627V349H285.654V342.578H286.627V345.273H288.344C288.398 344.68 288.543 344.174 288.777 343.756C289.012 343.338 289.328 343.018 289.727 342.795C290.125 342.572 290.594 342.461 291.133 342.461C291.695 342.461 292.184 342.594 292.598 342.859C293.016 343.121 293.338 343.5 293.564 343.996C293.795 344.488 293.91 345.082 293.91 345.777ZM289.328 345.777C289.328 346.316 289.389 346.775 289.51 347.154C289.635 347.529 289.828 347.816 290.09 348.016C290.355 348.211 290.699 348.309 291.121 348.309C291.539 348.309 291.879 348.211 292.141 348.016C292.406 347.82 292.6 347.535 292.721 347.16C292.846 346.781 292.908 346.32 292.908 345.777C292.908 345.242 292.846 344.789 292.721 344.418C292.596 344.047 292.402 343.766 292.141 343.574C291.879 343.379 291.539 343.281 291.121 343.281C290.703 343.281 290.361 343.379 290.096 343.574C289.834 343.766 289.641 344.047 289.516 344.418C289.391 344.789 289.328 345.242 289.328 345.777ZM300.42 349H299.43V343.393H297.479C297.4 344.404 297.301 345.271 297.18 345.994C297.062 346.713 296.914 347.301 296.734 347.758C296.559 348.211 296.344 348.545 296.09 348.76C295.84 348.971 295.541 349.076 295.193 349.076C295.088 349.076 294.988 349.07 294.895 349.059C294.801 349.047 294.721 349.027 294.654 349V348.262C294.705 348.277 294.758 348.289 294.812 348.297C294.871 348.305 294.932 348.309 294.994 348.309C295.17 348.309 295.33 348.236 295.475 348.092C295.623 347.943 295.756 347.721 295.873 347.424C295.994 347.127 296.102 346.752 296.195 346.299C296.289 345.842 296.371 345.305 296.441 344.688C296.516 344.066 296.58 343.363 296.635 342.578H300.42V349ZM310.768 349H305.154V348.186L307.445 345.859C307.871 345.43 308.229 345.047 308.518 344.711C308.811 344.375 309.033 344.045 309.186 343.721C309.338 343.393 309.414 343.033 309.414 342.643C309.414 342.158 309.27 341.789 308.98 341.535C308.695 341.277 308.318 341.148 307.85 341.148C307.439 341.148 307.076 341.219 306.76 341.359C306.443 341.5 306.119 341.699 305.787 341.957L305.266 341.301C305.492 341.109 305.738 340.939 306.004 340.791C306.273 340.643 306.561 340.525 306.865 340.439C307.174 340.354 307.502 340.311 307.85 340.311C308.377 340.311 308.832 340.402 309.215 340.586C309.598 340.77 309.893 341.031 310.1 341.371C310.311 341.711 310.416 342.115 310.416 342.584C310.416 343.037 310.326 343.459 310.146 343.85C309.967 344.236 309.715 344.621 309.391 345.004C309.066 345.383 308.688 345.785 308.254 346.211L306.391 348.068V348.109H310.768V349ZM315.643 349H314.693V342.93C314.693 342.699 314.693 342.502 314.693 342.338C314.697 342.17 314.701 342.018 314.705 341.881C314.713 341.74 314.723 341.598 314.734 341.453C314.613 341.578 314.5 341.686 314.395 341.775C314.289 341.861 314.158 341.969 314.002 342.098L313.023 342.883L312.514 342.221L314.834 340.434H315.643V349Z" fill="#6D6D6D"/>
<path d="M327.428 342.473C328.193 342.473 328.762 342.645 329.133 342.988C329.504 343.332 329.689 343.881 329.689 344.635V349H328.98L328.793 348.051H328.746C328.566 348.285 328.379 348.482 328.184 348.643C327.988 348.799 327.762 348.918 327.504 349C327.25 349.078 326.938 349.117 326.566 349.117C326.176 349.117 325.828 349.049 325.523 348.912C325.223 348.775 324.984 348.568 324.809 348.291C324.637 348.014 324.551 347.662 324.551 347.236C324.551 346.596 324.805 346.104 325.312 345.76C325.82 345.416 326.594 345.229 327.633 345.197L328.74 345.15V344.758C328.74 344.203 328.621 343.814 328.383 343.592C328.145 343.369 327.809 343.258 327.375 343.258C327.039 343.258 326.719 343.307 326.414 343.404C326.109 343.502 325.82 343.617 325.547 343.75L325.248 343.012C325.537 342.863 325.869 342.736 326.244 342.631C326.619 342.525 327.014 342.473 327.428 342.473ZM328.729 345.836L327.75 345.877C326.949 345.908 326.385 346.039 326.057 346.27C325.729 346.5 325.564 346.826 325.564 347.248C325.564 347.615 325.676 347.887 325.898 348.062C326.121 348.238 326.416 348.326 326.783 348.326C327.354 348.326 327.82 348.168 328.184 347.852C328.547 347.535 328.729 347.061 328.729 346.428V345.836ZM336.797 344.189C336.797 344.592 336.68 344.906 336.445 345.133C336.211 345.355 335.908 345.506 335.537 345.584V345.631C335.939 345.686 336.285 345.83 336.574 346.064C336.867 346.295 337.014 346.648 337.014 347.125C337.014 347.492 336.926 347.816 336.75 348.098C336.574 348.379 336.299 348.6 335.924 348.76C335.549 348.92 335.061 349 334.459 349H331.693V342.578H334.436C334.896 342.578 335.303 342.631 335.654 342.736C336.01 342.838 336.289 343.006 336.492 343.24C336.695 343.475 336.797 343.791 336.797 344.189ZM336 347.125C336 346.746 335.855 346.473 335.566 346.305C335.281 346.137 334.865 346.053 334.318 346.053H332.672V348.209H334.342C334.881 348.209 335.291 348.127 335.572 347.963C335.857 347.795 336 347.516 336 347.125ZM335.807 344.301C335.807 343.996 335.695 343.77 335.473 343.621C335.25 343.469 334.885 343.393 334.377 343.393H332.672V345.238H334.207C334.734 345.238 335.133 345.162 335.402 345.01C335.672 344.857 335.807 344.621 335.807 344.301ZM342.48 342.578V343.404H339.562V349H338.584V342.578H342.48ZM352.061 349H346.447V348.186L348.738 345.859C349.164 345.43 349.521 345.047 349.811 344.711C350.104 344.375 350.326 344.045 350.479 343.721C350.631 343.393 350.707 343.033 350.707 342.643C350.707 342.158 350.562 341.789 350.273 341.535C349.988 341.277 349.611 341.148 349.143 341.148C348.732 341.148 348.369 341.219 348.053 341.359C347.736 341.5 347.412 341.699 347.08 341.957L346.559 341.301C346.785 341.109 347.031 340.939 347.297 340.791C347.566 340.643 347.854 340.525 348.158 340.439C348.467 340.354 348.795 340.311 349.143 340.311C349.67 340.311 350.125 340.402 350.508 340.586C350.891 340.77 351.186 341.031 351.393 341.371C351.604 341.711 351.709 342.115 351.709 342.584C351.709 343.037 351.619 343.459 351.439 343.85C351.26 344.236 351.008 344.621 350.684 345.004C350.359 345.383 349.98 345.785 349.547 346.211L347.684 348.068V348.109H352.061V349ZM356.936 349H355.986V342.93C355.986 342.699 355.986 342.502 355.986 342.338C355.99 342.17 355.994 342.018 355.998 341.881C356.006 341.74 356.016 341.598 356.027 341.453C355.906 341.578 355.793 341.686 355.688 341.775C355.582 341.861 355.451 341.969 355.295 342.098L354.316 342.883L353.807 342.221L356.127 340.434H356.936V349Z" fill="#6D6D6D"/>
<path d="M415.562 345.777C415.562 346.305 415.494 346.775 415.357 347.189C415.221 347.604 415.023 347.953 414.766 348.238C414.508 348.523 414.195 348.742 413.828 348.895C413.465 349.043 413.053 349.117 412.592 349.117C412.162 349.117 411.768 349.043 411.408 348.895C411.053 348.742 410.744 348.523 410.482 348.238C410.225 347.953 410.023 347.604 409.879 347.189C409.738 346.775 409.668 346.305 409.668 345.777C409.668 345.074 409.787 344.477 410.025 343.984C410.264 343.488 410.604 343.111 411.045 342.854C411.49 342.592 412.02 342.461 412.633 342.461C413.219 342.461 413.73 342.592 414.168 342.854C414.609 343.115 414.951 343.494 415.193 343.99C415.439 344.482 415.562 345.078 415.562 345.777ZM410.676 345.777C410.676 346.293 410.744 346.74 410.881 347.119C411.018 347.498 411.229 347.791 411.514 347.998C411.799 348.205 412.166 348.309 412.615 348.309C413.061 348.309 413.426 348.205 413.711 347.998C414 347.791 414.213 347.498 414.35 347.119C414.486 346.74 414.555 346.293 414.555 345.777C414.555 345.266 414.486 344.824 414.35 344.453C414.213 344.078 414.002 343.789 413.717 343.586C413.432 343.383 413.062 343.281 412.609 343.281C411.941 343.281 411.451 343.502 411.139 343.943C410.83 344.385 410.676 344.996 410.676 345.777ZM420.988 342.578H422.061L419.289 345.678L422.283 349H421.141L418.223 345.742V349H417.244V342.578H418.223V345.695L420.988 342.578ZM427.82 343.404H425.705V349H424.744V343.404H422.658V342.578H427.82V343.404ZM437.389 349H431.775V348.186L434.066 345.859C434.492 345.43 434.85 345.047 435.139 344.711C435.432 344.375 435.654 344.045 435.807 343.721C435.959 343.393 436.035 343.033 436.035 342.643C436.035 342.158 435.891 341.789 435.602 341.535C435.316 341.277 434.939 341.148 434.471 341.148C434.061 341.148 433.697 341.219 433.381 341.359C433.064 341.5 432.74 341.699 432.408 341.957L431.887 341.301C432.113 341.109 432.359 340.939 432.625 340.791C432.895 340.643 433.182 340.525 433.486 340.439C433.795 340.354 434.123 340.311 434.471 340.311C434.998 340.311 435.453 340.402 435.836 340.586C436.219 340.77 436.514 341.031 436.721 341.371C436.932 341.711 437.037 342.115 437.037 342.584C437.037 343.037 436.947 343.459 436.768 343.85C436.588 344.236 436.336 344.621 436.012 345.004C435.688 345.383 435.309 345.785 434.875 346.211L433.012 348.068V348.109H437.389V349ZM442.264 349H441.314V342.93C441.314 342.699 441.314 342.502 441.314 342.338C441.318 342.17 441.322 342.018 441.326 341.881C441.334 341.74 441.344 341.598 441.355 341.453C441.234 341.578 441.121 341.686 441.016 341.775C440.91 341.861 440.779 341.969 440.623 342.098L439.645 342.883L439.135 342.221L441.455 340.434H442.264V349Z" fill="#6D6D6D"/>
<path d="M368.598 349.117C368.02 349.117 367.51 348.998 367.068 348.76C366.627 348.521 366.283 348.158 366.037 347.67C365.791 347.182 365.668 346.566 365.668 345.824C365.668 345.047 365.797 344.412 366.055 343.92C366.316 343.424 366.676 343.057 367.133 342.818C367.59 342.58 368.109 342.461 368.691 342.461C369.012 342.461 369.32 342.494 369.617 342.561C369.918 342.623 370.164 342.703 370.355 342.801L370.062 343.615C369.867 343.537 369.641 343.467 369.383 343.404C369.129 343.342 368.891 343.311 368.668 343.311C368.223 343.311 367.852 343.406 367.555 343.598C367.262 343.789 367.041 344.07 366.893 344.441C366.748 344.812 366.676 345.27 366.676 345.812C366.676 346.332 366.746 346.775 366.887 347.143C367.031 347.51 367.244 347.791 367.525 347.986C367.811 348.178 368.166 348.273 368.592 348.273C368.932 348.273 369.238 348.238 369.512 348.168C369.785 348.094 370.033 348.008 370.256 347.91V348.777C370.041 348.887 369.801 348.971 369.535 349.029C369.273 349.088 368.961 349.117 368.598 349.117ZM374.252 342.461C374.799 342.461 375.268 342.582 375.658 342.824C376.049 343.066 376.348 343.406 376.555 343.844C376.762 344.277 376.865 344.785 376.865 345.367V345.971H372.43C372.441 346.725 372.629 347.299 372.992 347.693C373.355 348.088 373.867 348.285 374.527 348.285C374.934 348.285 375.293 348.248 375.605 348.174C375.918 348.1 376.242 347.99 376.578 347.846V348.701C376.254 348.846 375.932 348.951 375.611 349.018C375.295 349.084 374.92 349.117 374.486 349.117C373.869 349.117 373.33 348.992 372.869 348.742C372.412 348.488 372.057 348.117 371.803 347.629C371.549 347.141 371.422 346.543 371.422 345.836C371.422 345.145 371.537 344.547 371.768 344.043C372.002 343.535 372.33 343.145 372.752 342.871C373.178 342.598 373.678 342.461 374.252 342.461ZM374.24 343.258C373.721 343.258 373.307 343.428 372.998 343.768C372.689 344.107 372.506 344.582 372.447 345.191H375.846C375.842 344.809 375.781 344.473 375.664 344.184C375.551 343.891 375.377 343.664 375.143 343.504C374.908 343.34 374.607 343.258 374.24 343.258ZM379.496 342.578V345.273H383.076V342.578H384.049V349H383.076V346.1H379.496V349H378.518V342.578H379.496ZM394.408 349H388.795V348.186L391.086 345.859C391.512 345.43 391.869 345.047 392.158 344.711C392.451 344.375 392.674 344.045 392.826 343.721C392.979 343.393 393.055 343.033 393.055 342.643C393.055 342.158 392.91 341.789 392.621 341.535C392.336 341.277 391.959 341.148 391.49 341.148C391.08 341.148 390.717 341.219 390.4 341.359C390.084 341.5 389.76 341.699 389.428 341.957L388.906 341.301C389.133 341.109 389.379 340.939 389.645 340.791C389.914 340.643 390.201 340.525 390.506 340.439C390.814 340.354 391.143 340.311 391.49 340.311C392.018 340.311 392.473 340.402 392.855 340.586C393.238 340.77 393.533 341.031 393.74 341.371C393.951 341.711 394.057 342.115 394.057 342.584C394.057 343.037 393.967 343.459 393.787 343.85C393.607 344.236 393.355 344.621 393.031 345.004C392.707 345.383 392.328 345.785 391.895 346.211L390.031 348.068V348.109H394.408V349ZM399.283 349H398.334V342.93C398.334 342.699 398.334 342.502 398.334 342.338C398.338 342.17 398.342 342.018 398.346 341.881C398.354 341.74 398.363 341.598 398.375 341.453C398.254 341.578 398.141 341.686 398.035 341.775C397.93 341.861 397.799 341.969 397.643 342.098L396.664 342.883L396.154 342.221L398.475 340.434H399.283V349Z" fill="#6D6D6D"/>
<path d="M502.73 342.578V348.174H503.65V351.221H502.707V349H498.16V351.221H497.229V348.174H497.732C498.1 347.666 498.404 347.109 498.646 346.504C498.889 345.898 499.072 345.264 499.197 344.6C499.322 343.932 499.389 343.258 499.396 342.578H502.73ZM501.787 343.352H500.264C500.229 343.922 500.145 344.502 500.012 345.092C499.883 345.682 499.711 346.244 499.496 346.779C499.281 347.311 499.031 347.775 498.746 348.174H501.787V343.352ZM507.4 342.461C507.947 342.461 508.416 342.582 508.807 342.824C509.197 343.066 509.496 343.406 509.703 343.844C509.91 344.277 510.014 344.785 510.014 345.367V345.971H505.578C505.59 346.725 505.777 347.299 506.141 347.693C506.504 348.088 507.016 348.285 507.676 348.285C508.082 348.285 508.441 348.248 508.754 348.174C509.066 348.1 509.391 347.99 509.727 347.846V348.701C509.402 348.846 509.08 348.951 508.76 349.018C508.443 349.084 508.068 349.117 507.635 349.117C507.018 349.117 506.479 348.992 506.018 348.742C505.561 348.488 505.205 348.117 504.951 347.629C504.697 347.141 504.57 346.543 504.57 345.836C504.57 345.145 504.686 344.547 504.916 344.043C505.15 343.535 505.479 343.145 505.9 342.871C506.326 342.598 506.826 342.461 507.4 342.461ZM507.389 343.258C506.869 343.258 506.455 343.428 506.146 343.768C505.838 344.107 505.654 344.582 505.596 345.191H508.994C508.99 344.809 508.93 344.473 508.812 344.184C508.699 343.891 508.525 343.664 508.291 343.504C508.057 343.34 507.756 343.258 507.389 343.258ZM515.41 342.578H516.482L513.711 345.678L516.705 349H515.562L512.645 345.742V349H511.666V342.578H512.645V345.695L515.41 342.578ZM526.162 349H520.549V348.186L522.84 345.859C523.266 345.43 523.623 345.047 523.912 344.711C524.205 344.375 524.428 344.045 524.58 343.721C524.732 343.393 524.809 343.033 524.809 342.643C524.809 342.158 524.664 341.789 524.375 341.535C524.09 341.277 523.713 341.148 523.244 341.148C522.834 341.148 522.471 341.219 522.154 341.359C521.838 341.5 521.514 341.699 521.182 341.957L520.66 341.301C520.887 341.109 521.133 340.939 521.398 340.791C521.668 340.643 521.955 340.525 522.26 340.439C522.568 340.354 522.896 340.311 523.244 340.311C523.771 340.311 524.227 340.402 524.609 340.586C524.992 340.77 525.287 341.031 525.494 341.371C525.705 341.711 525.811 342.115 525.811 342.584C525.811 343.037 525.721 343.459 525.541 343.85C525.361 344.236 525.109 344.621 524.785 345.004C524.461 345.383 524.082 345.785 523.648 346.211L521.785 348.068V348.109H526.162V349ZM531.037 349H530.088V342.93C530.088 342.699 530.088 342.502 530.088 342.338C530.092 342.17 530.096 342.018 530.1 341.881C530.107 341.74 530.117 341.598 530.129 341.453C530.008 341.578 529.895 341.686 529.789 341.775C529.684 341.861 529.553 341.969 529.396 342.098L528.418 342.883L527.908 342.221L530.229 340.434H531.037V349Z" fill="#6D6D6D"/>
<path d="M455.004 342.578V345.273H458.584V342.578H459.557V349H458.584V346.1H455.004V349H454.025V342.578H455.004ZM467.156 345.777C467.156 346.305 467.088 346.775 466.951 347.189C466.814 347.604 466.617 347.953 466.359 348.238C466.102 348.523 465.789 348.742 465.422 348.895C465.059 349.043 464.646 349.117 464.186 349.117C463.756 349.117 463.361 349.043 463.002 348.895C462.646 348.742 462.338 348.523 462.076 348.238C461.818 347.953 461.617 347.604 461.473 347.189C461.332 346.775 461.262 346.305 461.262 345.777C461.262 345.074 461.381 344.477 461.619 343.984C461.857 343.488 462.197 343.111 462.639 342.854C463.084 342.592 463.613 342.461 464.227 342.461C464.812 342.461 465.324 342.592 465.762 342.854C466.203 343.115 466.545 343.494 466.787 343.99C467.033 344.482 467.156 345.078 467.156 345.777ZM462.27 345.777C462.27 346.293 462.338 346.74 462.475 347.119C462.611 347.498 462.822 347.791 463.107 347.998C463.393 348.205 463.76 348.309 464.209 348.309C464.654 348.309 465.02 348.205 465.305 347.998C465.594 347.791 465.807 347.498 465.943 347.119C466.08 346.74 466.148 346.293 466.148 345.777C466.148 345.266 466.08 344.824 465.943 344.453C465.807 344.078 465.596 343.789 465.311 343.586C465.025 343.383 464.656 343.281 464.203 343.281C463.535 343.281 463.045 343.502 462.732 343.943C462.424 344.385 462.27 344.996 462.27 345.777ZM469.148 349H468.012L469.863 346.293C469.594 346.234 469.344 346.135 469.113 345.994C468.883 345.85 468.695 345.652 468.551 345.402C468.41 345.152 468.34 344.842 468.34 344.471C468.34 343.854 468.545 343.385 468.955 343.064C469.369 342.74 469.914 342.578 470.59 342.578H473.432V349H472.459V346.422H470.83L469.148 349ZM469.283 344.477C469.283 344.859 469.42 345.145 469.693 345.332C469.967 345.516 470.357 345.607 470.865 345.607H472.459V343.393H470.695C470.195 343.393 469.834 343.494 469.611 343.697C469.393 343.896 469.283 344.156 469.283 344.477ZM483.779 349H478.166V348.186L480.457 345.859C480.883 345.43 481.24 345.047 481.529 344.711C481.822 344.375 482.045 344.045 482.197 343.721C482.35 343.393 482.426 343.033 482.426 342.643C482.426 342.158 482.281 341.789 481.992 341.535C481.707 341.277 481.33 341.148 480.861 341.148C480.451 341.148 480.088 341.219 479.771 341.359C479.455 341.5 479.131 341.699 478.799 341.957L478.277 341.301C478.504 341.109 478.75 340.939 479.016 340.791C479.285 340.643 479.572 340.525 479.877 340.439C480.186 340.354 480.514 340.311 480.861 340.311C481.389 340.311 481.844 340.402 482.227 340.586C482.609 340.77 482.904 341.031 483.111 341.371C483.322 341.711 483.428 342.115 483.428 342.584C483.428 343.037 483.338 343.459 483.158 343.85C482.979 344.236 482.727 344.621 482.402 345.004C482.078 345.383 481.699 345.785 481.266 346.211L479.402 348.068V348.109H483.779V349ZM488.654 349H487.705V342.93C487.705 342.699 487.705 342.502 487.705 342.338C487.709 342.17 487.713 342.018 487.717 341.881C487.725 341.74 487.734 341.598 487.746 341.453C487.625 341.578 487.512 341.686 487.406 341.775C487.301 341.861 487.17 341.969 487.014 342.098L486.035 342.883L485.525 342.221L487.846 340.434H488.654V349Z" fill="#6D6D6D"/>
</svg>
